<?xml version="1.0" encoding="utf-8" standalone="no"?>
<!DOCTYPE svg PUBLIC "-//W3C//DTD SVG 1.1//EN"
  "http://www.w3.org/Graphics/SVG/1.1/DTD/svg11.dtd">
<svg xmlns:xlink="http://www.w3.org/1999/xlink" width="576pt" height="720pt" viewBox="0 0 576 720" xmlns="http://www.w3.org/2000/svg" version="1.1">
 <metadata>
  <rdf:RDF xmlns:dc="http://purl.org/dc/elements/1.1/" xmlns:cc="http://creativecommons.org/ns#" xmlns:rdf="http://www.w3.org/1999/02/22-rdf-syntax-ns#">
   <cc:Work>
    <dc:type rdf:resource="http://purl.org/dc/dcmitype/StillImage"/>
    <dc:date>2025-04-27T08:13:10.328022</dc:date>
    <dc:format>image/svg+xml</dc:format>
    <dc:creator>
     <cc:Agent>
      <dc:title>Matplotlib v3.9.2, https://matplotlib.org/</dc:title>
     </cc:Agent>
    </dc:creator>
   </cc:Work>
  </rdf:RDF>
 </metadata>
 <defs>
  <style type="text/css">*{stroke-linejoin: round; stroke-linecap: butt}</style>
 </defs>
 <g id="figure_1">
  <g id="patch_1">
   <path d="M 0 720 
L 576 720 
L 576 0 
L 0 0 
z
" style="fill: #ffffff"/>
  </g>
  <g id="axes_1">
   <g id="patch_2">
    <path d="M 72 640.8 
L 518.4 640.8 
L 518.4 86.4 
L 72 86.4 
z
" style="fill: #ffffff"/>
   </g>
   <g id="matplotlib.axis_1">
    <g id="xtick_1">
     <g id="line2d_1">
      <defs>
       <path id="m7a838a748c" d="M 0 0 
L 0 3.5 
" style="stroke: #000000; stroke-width: 0.8"/>
      </defs>
      <g>
       <use xlink:href="#m7a838a748c" x="92.290909" y="640.8" style="stroke: #000000; stroke-width: 0.8"/>
      </g>
     </g>
     <g id="text_1">
      <!-- 0 -->
      <g transform="translate(87.790909 660.29875) scale(0.18 -0.18)">
       <defs>
        <path id="TimesNewRomanPSMT-30" d="M 231 2094 
Q 231 2819 450 3342 
Q 669 3866 1031 4122 
Q 1313 4325 1613 4325 
Q 2100 4325 2488 3828 
Q 2972 3213 2972 2159 
Q 2972 1422 2759 906 
Q 2547 391 2217 158 
Q 1888 -75 1581 -75 
Q 975 -75 572 641 
Q 231 1244 231 2094 
z
M 844 2016 
Q 844 1141 1059 588 
Q 1238 122 1591 122 
Q 1759 122 1940 273 
Q 2122 425 2216 781 
Q 2359 1319 2359 2297 
Q 2359 3022 2209 3506 
Q 2097 3866 1919 4016 
Q 1791 4119 1609 4119 
Q 1397 4119 1231 3928 
Q 1006 3669 925 3112 
Q 844 2556 844 2016 
z
" transform="scale(0.015625)"/>
       </defs>
       <use xlink:href="#TimesNewRomanPSMT-30"/>
      </g>
     </g>
    </g>
    <g id="xtick_2">
     <g id="line2d_2">
      <g>
       <use xlink:href="#m7a838a748c" x="173.454545" y="640.8" style="stroke: #000000; stroke-width: 0.8"/>
      </g>
     </g>
     <g id="text_2">
      <!-- 2 -->
      <g transform="translate(168.954545 660.29875) scale(0.18 -0.18)">
       <defs>
        <path id="TimesNewRomanPSMT-32" d="M 2934 816 
L 2638 0 
L 138 0 
L 138 116 
Q 1241 1122 1691 1759 
Q 2141 2397 2141 2925 
Q 2141 3328 1894 3587 
Q 1647 3847 1303 3847 
Q 991 3847 742 3664 
Q 494 3481 375 3128 
L 259 3128 
Q 338 3706 661 4015 
Q 984 4325 1469 4325 
Q 1984 4325 2329 3994 
Q 2675 3663 2675 3213 
Q 2675 2891 2525 2569 
Q 2294 2063 1775 1497 
Q 997 647 803 472 
L 1909 472 
Q 2247 472 2383 497 
Q 2519 522 2628 598 
Q 2738 675 2819 816 
L 2934 816 
z
" transform="scale(0.015625)"/>
       </defs>
       <use xlink:href="#TimesNewRomanPSMT-32"/>
      </g>
     </g>
    </g>
    <g id="xtick_3">
     <g id="line2d_3">
      <g>
       <use xlink:href="#m7a838a748c" x="254.618182" y="640.8" style="stroke: #000000; stroke-width: 0.8"/>
      </g>
     </g>
     <g id="text_3">
      <!-- 4 -->
      <g transform="translate(250.118182 660.29875) scale(0.18 -0.18)">
       <defs>
        <path id="TimesNewRomanPSMT-34" d="M 2978 1563 
L 2978 1119 
L 2409 1119 
L 2409 0 
L 1894 0 
L 1894 1119 
L 100 1119 
L 100 1519 
L 2066 4325 
L 2409 4325 
L 2409 1563 
L 2978 1563 
z
M 1894 1563 
L 1894 3666 
L 406 1563 
L 1894 1563 
z
" transform="scale(0.015625)"/>
       </defs>
       <use xlink:href="#TimesNewRomanPSMT-34"/>
      </g>
     </g>
    </g>
    <g id="xtick_4">
     <g id="line2d_4">
      <g>
       <use xlink:href="#m7a838a748c" x="335.781818" y="640.8" style="stroke: #000000; stroke-width: 0.8"/>
      </g>
     </g>
     <g id="text_4">
      <!-- 6 -->
      <g transform="translate(331.281818 660.29875) scale(0.18 -0.18)">
       <defs>
        <path id="TimesNewRomanPSMT-36" d="M 2869 4325 
L 2869 4209 
Q 2456 4169 2195 4045 
Q 1934 3922 1679 3669 
Q 1425 3416 1258 3105 
Q 1091 2794 978 2366 
Q 1428 2675 1881 2675 
Q 2316 2675 2634 2325 
Q 2953 1975 2953 1425 
Q 2953 894 2631 456 
Q 2244 -75 1606 -75 
Q 1172 -75 869 213 
Q 275 772 275 1663 
Q 275 2231 503 2743 
Q 731 3256 1154 3653 
Q 1578 4050 1965 4187 
Q 2353 4325 2688 4325 
L 2869 4325 
z
M 925 2138 
Q 869 1716 869 1456 
Q 869 1156 980 804 
Q 1091 453 1309 247 
Q 1469 100 1697 100 
Q 1969 100 2183 356 
Q 2397 613 2397 1088 
Q 2397 1622 2184 2012 
Q 1972 2403 1581 2403 
Q 1463 2403 1327 2353 
Q 1191 2303 925 2138 
z
" transform="scale(0.015625)"/>
       </defs>
       <use xlink:href="#TimesNewRomanPSMT-36"/>
      </g>
     </g>
    </g>
    <g id="xtick_5">
     <g id="line2d_5">
      <g>
       <use xlink:href="#m7a838a748c" x="416.945455" y="640.8" style="stroke: #000000; stroke-width: 0.8"/>
      </g>
     </g>
     <g id="text_5">
      <!-- 8 -->
      <g transform="translate(412.445455 660.29875) scale(0.18 -0.18)">
       <defs>
        <path id="TimesNewRomanPSMT-38" d="M 1228 2134 
Q 725 2547 579 2797 
Q 434 3047 434 3316 
Q 434 3728 753 4026 
Q 1072 4325 1600 4325 
Q 2113 4325 2425 4047 
Q 2738 3769 2738 3413 
Q 2738 3175 2569 2928 
Q 2400 2681 1866 2347 
Q 2416 1922 2594 1678 
Q 2831 1359 2831 1006 
Q 2831 559 2490 242 
Q 2150 -75 1597 -75 
Q 994 -75 656 303 
Q 388 606 388 966 
Q 388 1247 577 1523 
Q 766 1800 1228 2134 
z
M 1719 2469 
Q 2094 2806 2194 3001 
Q 2294 3197 2294 3444 
Q 2294 3772 2109 3958 
Q 1925 4144 1606 4144 
Q 1288 4144 1088 3959 
Q 888 3775 888 3528 
Q 888 3366 970 3203 
Q 1053 3041 1206 2894 
L 1719 2469 
z
M 1375 2016 
Q 1116 1797 991 1539 
Q 866 1281 866 981 
Q 866 578 1086 336 
Q 1306 94 1647 94 
Q 1984 94 2187 284 
Q 2391 475 2391 747 
Q 2391 972 2272 1150 
Q 2050 1481 1375 2016 
z
" transform="scale(0.015625)"/>
       </defs>
       <use xlink:href="#TimesNewRomanPSMT-38"/>
      </g>
     </g>
    </g>
    <g id="xtick_6">
     <g id="line2d_6">
      <g>
       <use xlink:href="#m7a838a748c" x="498.109091" y="640.8" style="stroke: #000000; stroke-width: 0.8"/>
      </g>
     </g>
     <g id="text_6">
      <!-- 10 -->
      <g transform="translate(489.109091 660.29875) scale(0.18 -0.18)">
       <defs>
        <path id="TimesNewRomanPSMT-31" d="M 750 3822 
L 1781 4325 
L 1884 4325 
L 1884 747 
Q 1884 391 1914 303 
Q 1944 216 2037 169 
Q 2131 122 2419 116 
L 2419 0 
L 825 0 
L 825 116 
Q 1125 122 1212 167 
Q 1300 213 1334 289 
Q 1369 366 1369 747 
L 1369 3034 
Q 1369 3497 1338 3628 
Q 1316 3728 1258 3775 
Q 1200 3822 1119 3822 
Q 1003 3822 797 3725 
L 750 3822 
z
" transform="scale(0.015625)"/>
       </defs>
       <use xlink:href="#TimesNewRomanPSMT-31"/>
       <use xlink:href="#TimesNewRomanPSMT-30" x="50"/>
      </g>
     </g>
    </g>
   </g>
   <g id="matplotlib.axis_2">
    <g id="ytick_1">
     <g id="line2d_7">
      <defs>
       <path id="mbd60ed1bca" d="M 0 0 
L -3.5 0 
" style="stroke: #000000; stroke-width: 0.8"/>
      </defs>
      <g>
       <use xlink:href="#mbd60ed1bca" x="72" y="553.885668" style="stroke: #000000; stroke-width: 0.8"/>
      </g>
     </g>
     <g id="text_7">
      <!-- −100 -->
      <g transform="translate(27.849688 560.135043) scale(0.18 -0.18)">
       <defs>
        <path id="TimesNewRomanPSMT-2212" d="M 3484 2000 
L 116 2000 
L 116 2256 
L 3484 2256 
L 3484 2000 
z
" transform="scale(0.015625)"/>
       </defs>
       <use xlink:href="#TimesNewRomanPSMT-2212"/>
       <use xlink:href="#TimesNewRomanPSMT-31" x="56.396484"/>
       <use xlink:href="#TimesNewRomanPSMT-30" x="106.396484"/>
       <use xlink:href="#TimesNewRomanPSMT-30" x="156.396484"/>
      </g>
     </g>
    </g>
    <g id="ytick_2">
     <g id="line2d_8">
      <g>
       <use xlink:href="#mbd60ed1bca" x="72" y="451.028447" style="stroke: #000000; stroke-width: 0.8"/>
      </g>
     </g>
     <g id="text_8">
      <!-- −50 -->
      <g transform="translate(36.849688 457.277822) scale(0.18 -0.18)">
       <defs>
        <path id="TimesNewRomanPSMT-35" d="M 2778 4238 
L 2534 3706 
L 1259 3706 
L 981 3138 
Q 1809 3016 2294 2522 
Q 2709 2097 2709 1522 
Q 2709 1188 2573 903 
Q 2438 619 2231 419 
Q 2025 219 1772 97 
Q 1413 -75 1034 -75 
Q 653 -75 479 54 
Q 306 184 306 341 
Q 306 428 378 495 
Q 450 563 559 563 
Q 641 563 702 538 
Q 763 513 909 409 
Q 1144 247 1384 247 
Q 1750 247 2026 523 
Q 2303 800 2303 1197 
Q 2303 1581 2056 1914 
Q 1809 2247 1375 2428 
Q 1034 2569 447 2591 
L 1259 4238 
L 2778 4238 
z
" transform="scale(0.015625)"/>
       </defs>
       <use xlink:href="#TimesNewRomanPSMT-2212"/>
       <use xlink:href="#TimesNewRomanPSMT-35" x="56.396484"/>
       <use xlink:href="#TimesNewRomanPSMT-30" x="106.396484"/>
      </g>
     </g>
    </g>
    <g id="ytick_3">
     <g id="line2d_9">
      <g>
       <use xlink:href="#mbd60ed1bca" x="72" y="348.171227" style="stroke: #000000; stroke-width: 0.8"/>
      </g>
     </g>
     <g id="text_9">
      <!-- 0 -->
      <g transform="translate(56 354.420602) scale(0.18 -0.18)">
       <use xlink:href="#TimesNewRomanPSMT-30"/>
      </g>
     </g>
    </g>
    <g id="ytick_4">
     <g id="line2d_10">
      <g>
       <use xlink:href="#mbd60ed1bca" x="72" y="245.314007" style="stroke: #000000; stroke-width: 0.8"/>
      </g>
     </g>
     <g id="text_10">
      <!-- 50 -->
      <g transform="translate(47 251.563382) scale(0.18 -0.18)">
       <use xlink:href="#TimesNewRomanPSMT-35"/>
       <use xlink:href="#TimesNewRomanPSMT-30" x="50"/>
      </g>
     </g>
    </g>
    <g id="ytick_5">
     <g id="line2d_11">
      <g>
       <use xlink:href="#mbd60ed1bca" x="72" y="142.456786" style="stroke: #000000; stroke-width: 0.8"/>
      </g>
     </g>
     <g id="text_11">
      <!-- 100 -->
      <g transform="translate(38 148.706161) scale(0.18 -0.18)">
       <use xlink:href="#TimesNewRomanPSMT-31"/>
       <use xlink:href="#TimesNewRomanPSMT-30" x="50"/>
       <use xlink:href="#TimesNewRomanPSMT-30" x="100"/>
      </g>
     </g>
    </g>
   </g>
   <g id="line2d_12">
    <path d="M 92.290909 615.6 
L 204.408845 581.614908 
L 214.564455 578.782444 
L 221.47027 577.079597 
L 226.751188 575.993816 
L 231.219656 575.285754 
L 235.2819 574.855847 
L 238.93792 574.673299 
L 242.593939 574.703712 
L 246.249959 574.954702 
L 249.905979 575.420554 
L 253.968223 576.166102 
L 258.436691 577.211831 
L 264.530057 578.88288 
L 276.310565 582.164548 
L 281.185258 583.267396 
L 285.653726 584.040892 
L 289.715971 584.507827 
L 293.37199 584.716558 
L 294.996888 584.742509 
L 295.403112 523.028826 
L 299.059132 523.145292 
L 302.715152 523.467094 
L 306.777396 524.05047 
L 311.245864 524.934402 
L 316.120557 526.128846 
L 323.432596 528.1841 
L 332.369533 530.662516 
L 337.244226 531.771742 
L 341.30647 532.472083 
L 344.96249 532.891399 
L 348.618509 533.093373 
L 352.274529 533.07537 
L 355.930549 532.847691 
L 359.992793 532.373782 
L 364.461261 531.626196 
L 369.742179 530.505616 
L 376.241769 528.88153 
L 385.178706 526.391667 
L 399.802785 522.051496 
L 451.799509 506.256285 
L 498.109091 492.171336 
L 498.109091 492.171336 
" clip-path="url(#p315e964180)" style="fill: none; stroke: #ff0000; stroke-width: 1.5; stroke-linecap: square"/>
   </g>
   <g id="line2d_13">
    <path d="M 92.290909 492.171336 
L 204.408845 526.156428 
L 214.564455 528.988892 
L 221.47027 530.691739 
L 226.751188 531.777519 
L 231.219656 532.485581 
L 235.2819 532.915488 
L 238.93792 533.098036 
L 242.593939 533.067624 
L 246.249959 532.816634 
L 249.905979 532.350782 
L 253.968223 531.605233 
L 258.436691 530.559505 
L 264.530057 528.888455 
L 276.310565 525.606788 
L 281.185258 524.50394 
L 285.653726 523.730444 
L 289.715971 523.263509 
L 293.37199 523.054778 
L 294.996888 523.028826 
L 295.403112 584.742509 
L 299.059132 584.626043 
L 302.715152 584.304242 
L 306.777396 583.720866 
L 311.245864 582.836934 
L 316.120557 581.64249 
L 323.432596 579.587235 
L 332.369533 577.10882 
L 337.244226 575.999593 
L 341.30647 575.299253 
L 344.96249 574.879937 
L 348.618509 574.677962 
L 352.274529 574.695966 
L 355.930549 574.923645 
L 359.992793 575.397554 
L 364.461261 576.14514 
L 369.742179 577.26572 
L 376.241769 578.889805 
L 385.178706 581.379669 
L 399.802785 585.71984 
L 451.799509 601.515051 
L 498.109091 615.6 
L 498.109091 615.6 
" clip-path="url(#p315e964180)" style="fill: none; stroke: #0000ff; stroke-width: 1.5; stroke-linecap: square"/>
   </g>
   <g id="line2d_14">
    <path d="M 92.290909 368.742671 
L 195.471908 358.393543 
L 204.81507 357.691877 
L 211.31466 357.42341 
L 216.189353 357.426859 
L 220.657821 357.643677 
L 224.720066 358.055479 
L 228.78231 358.693467 
L 232.844554 359.563475 
L 236.906798 360.656356 
L 241.375266 362.090041 
L 246.249959 363.883598 
L 252.343325 366.365409 
L 270.623423 373.978914 
L 275.498116 375.670673 
L 279.56036 376.863771 
L 283.622604 377.821144 
L 287.278624 378.45676 
L 290.934644 378.861469 
L 294.590663 379.024977 
L 298.246683 378.943106 
L 301.902703 378.61795 
L 305.558722 378.057795 
L 309.214742 377.276818 
L 313.276986 376.174025 
L 317.745455 374.714321 
L 322.620147 372.887594 
L 329.119738 370.200958 
L 344.150041 363.883598 
L 349.430958 361.950644 
L 353.899427 360.53757 
L 357.961671 359.466186 
L 362.023915 358.619201 
L 366.086159 358.004352 
L 370.148403 357.614254 
L 374.616871 357.418073 
L 379.491564 357.4322 
L 385.58493 357.691877 
L 393.709419 358.289093 
L 407.114824 359.538309 
L 452.205733 364.08888 
L 498.109091 368.742671 
L 498.109091 368.742671 
" clip-path="url(#p315e964180)" style="fill: none; stroke-dasharray: 3.7,1.6; stroke-dashoffset: 0; stroke: #000000"/>
   </g>
   <g id="line2d_15">
    <path d="M 92.290909 368.742671 
L 195.471908 358.393543 
L 204.81507 357.691877 
L 211.31466 357.42341 
L 216.189353 357.426859 
L 220.657821 357.643677 
L 224.720066 358.055479 
L 228.78231 358.693467 
L 232.844554 359.563475 
L 236.906798 360.656356 
L 241.375266 362.090041 
L 246.249959 363.883598 
L 252.343325 366.365409 
L 270.623423 373.978914 
L 275.498116 375.670673 
L 279.56036 376.863771 
L 283.622604 377.821144 
L 287.278624 378.45676 
L 290.934644 378.861469 
L 294.590663 379.024977 
L 298.246683 378.943106 
L 301.902703 378.61795 
L 305.558722 378.057795 
L 309.214742 377.276818 
L 313.276986 376.174025 
L 317.745455 374.714321 
L 322.620147 372.887594 
L 329.119738 370.200958 
L 344.150041 363.883598 
L 349.430958 361.950644 
L 353.899427 360.53757 
L 357.961671 359.466186 
L 362.023915 358.619201 
L 366.086159 358.004352 
L 370.148403 357.614254 
L 374.616871 357.418073 
L 379.491564 357.4322 
L 385.58493 357.691877 
L 393.709419 358.289093 
L 407.114824 359.538309 
L 452.205733 364.08888 
L 498.109091 368.742671 
L 498.109091 368.742671 
" clip-path="url(#p315e964180)" style="fill: none; stroke-dasharray: 3.7,1.6; stroke-dashoffset: 0; stroke: #000000"/>
   </g>
   <g id="line2d_16">
    <path d="M 92.290909 327.599783 
L 195.471908 337.948912 
L 204.81507 338.650577 
L 211.31466 338.919044 
L 216.189353 338.915596 
L 220.657821 338.698777 
L 224.720066 338.286976 
L 228.78231 337.648987 
L 232.844554 336.778979 
L 236.906798 335.686099 
L 241.375266 334.252413 
L 246.249959 332.458857 
L 252.343325 329.977045 
L 270.623423 322.36354 
L 275.498116 320.671781 
L 279.56036 319.478683 
L 283.622604 318.52131 
L 287.278624 317.885694 
L 290.934644 317.480985 
L 294.590663 317.317477 
L 298.246683 317.399348 
L 301.902703 317.724504 
L 305.558722 318.284659 
L 309.214742 319.065636 
L 313.276986 320.168429 
L 317.745455 321.628133 
L 322.620147 323.45486 
L 329.119738 326.141496 
L 344.150041 332.458857 
L 349.430958 334.391811 
L 353.899427 335.804885 
L 357.961671 336.876268 
L 362.023915 337.723254 
L 366.086159 338.338102 
L 370.148403 338.7282 
L 374.616871 338.924381 
L 379.491564 338.910254 
L 385.58493 338.650577 
L 393.709419 338.053361 
L 407.114824 336.804145 
L 452.205733 332.253574 
L 498.109091 327.599783 
L 498.109091 327.599783 
" clip-path="url(#p315e964180)" style="fill: none; stroke-dasharray: 3.7,1.6; stroke-dashoffset: 0; stroke: #000000"/>
   </g>
   <g id="line2d_17">
    <path d="M 92.290909 327.599783 
L 195.471908 337.948912 
L 204.81507 338.650577 
L 211.31466 338.919044 
L 216.189353 338.915596 
L 220.657821 338.698777 
L 224.720066 338.286976 
L 228.78231 337.648987 
L 232.844554 336.778979 
L 236.906798 335.686099 
L 241.375266 334.252413 
L 246.249959 332.458857 
L 252.343325 329.977045 
L 270.623423 322.36354 
L 275.498116 320.671781 
L 279.56036 319.478683 
L 283.622604 318.52131 
L 287.278624 317.885694 
L 290.934644 317.480985 
L 294.590663 317.317477 
L 298.246683 317.399348 
L 301.902703 317.724504 
L 305.558722 318.284659 
L 309.214742 319.065636 
L 313.276986 320.168429 
L 317.745455 321.628133 
L 322.620147 323.45486 
L 329.119738 326.141496 
L 344.150041 332.458857 
L 349.430958 334.391811 
L 353.899427 335.804885 
L 357.961671 336.876268 
L 362.023915 337.723254 
L 366.086159 338.338102 
L 370.148403 338.7282 
L 374.616871 338.924381 
L 379.491564 338.910254 
L 385.58493 338.650577 
L 393.709419 338.053361 
L 407.114824 336.804145 
L 452.205733 332.253574 
L 498.109091 327.599783 
L 498.109091 327.599783 
" clip-path="url(#p315e964180)" style="fill: none; stroke-dasharray: 3.7,1.6; stroke-dashoffset: 0; stroke: #000000"/>
   </g>
   <g id="line2d_18">
    <path d="M 92.290909 163.028231 
L 195.471908 152.679102 
L 204.81507 151.977437 
L 211.31466 151.708969 
L 216.189353 151.712418 
L 220.657821 151.929237 
L 224.720066 152.341038 
L 228.78231 152.979026 
L 232.844554 153.849034 
L 236.906798 154.941915 
L 241.375266 156.3756 
L 246.249959 158.169157 
L 252.343325 160.650969 
L 270.623423 168.264473 
L 275.498116 169.956232 
L 279.56036 171.149331 
L 283.622604 172.106704 
L 287.278624 172.742319 
L 290.934644 173.147028 
L 294.590663 173.310536 
L 298.246683 173.228666 
L 301.902703 172.90351 
L 305.558722 172.343355 
L 309.214742 171.562377 
L 313.276986 170.459584 
L 317.745455 168.99988 
L 322.620147 167.173153 
L 329.119738 164.486518 
L 344.150041 158.169157 
L 349.430958 156.236203 
L 353.899427 154.823129 
L 357.961671 153.751746 
L 362.023915 152.90476 
L 366.086159 152.289911 
L 370.148403 151.899814 
L 374.616871 151.703633 
L 379.491564 151.717759 
L 385.58493 151.977437 
L 393.709419 152.574652 
L 407.114824 153.823868 
L 452.205733 158.37444 
L 498.109091 163.028231 
L 498.109091 163.028231 
" clip-path="url(#p315e964180)" style="fill: none; stroke-dasharray: 3.7,1.6; stroke-dashoffset: 0; stroke: #000000"/>
   </g>
   <g id="line2d_19">
    <path d="M 92.290909 121.885342 
L 195.471908 132.234471 
L 204.81507 132.936136 
L 211.31466 133.204604 
L 216.189353 133.201155 
L 220.657821 132.984336 
L 224.720066 132.572535 
L 228.78231 131.934547 
L 232.844554 131.064538 
L 236.906798 129.971658 
L 241.375266 128.537973 
L 246.249959 126.744416 
L 252.343325 124.262604 
L 270.623423 116.6491 
L 275.498116 114.957341 
L 279.56036 113.764242 
L 283.622604 112.806869 
L 287.278624 112.171254 
L 290.934644 111.766545 
L 294.590663 111.603037 
L 298.246683 111.684907 
L 301.902703 112.010063 
L 305.558722 112.570218 
L 309.214742 113.351196 
L 313.276986 114.453989 
L 317.745455 115.913693 
L 322.620147 117.74042 
L 329.119738 120.427055 
L 344.150041 126.744416 
L 349.430958 128.67737 
L 353.899427 130.090444 
L 357.961671 131.161827 
L 362.023915 132.008813 
L 366.086159 132.623662 
L 370.148403 133.013759 
L 374.616871 133.20994 
L 379.491564 133.195814 
L 385.58493 132.936136 
L 393.709419 132.338921 
L 407.114824 131.089705 
L 452.205733 126.539133 
L 498.109091 121.885342 
L 498.109091 121.885342 
" clip-path="url(#p315e964180)" style="fill: none; stroke-dasharray: 3.7,1.6; stroke-dashoffset: 0; stroke: #000000"/>
   </g>
   <g id="patch_3">
    <path d="M 72 640.8 
L 72 86.4 
" style="fill: none; stroke: #000000; stroke-width: 0.8; stroke-linejoin: miter; stroke-linecap: square"/>
   </g>
   <g id="patch_4">
    <path d="M 518.4 640.8 
L 518.4 86.4 
" style="fill: none; stroke: #000000; stroke-width: 0.8; stroke-linejoin: miter; stroke-linecap: square"/>
   </g>
   <g id="patch_5">
    <path d="M 72 640.8 
L 518.4 640.8 
" style="fill: none; stroke: #000000; stroke-width: 0.8; stroke-linejoin: miter; stroke-linecap: square"/>
   </g>
   <g id="patch_6">
    <path d="M 72 86.4 
L 518.4 86.4 
" style="fill: none; stroke: #000000; stroke-width: 0.8; stroke-linejoin: miter; stroke-linecap: square"/>
   </g>
  </g>
 </g>
 <defs>
  <clipPath id="p315e964180">
   <rect x="72" y="86.4" width="446.4" height="554.4"/>
  </clipPath>
 </defs>
</svg>
