<?xml version="1.0" encoding="utf-8" standalone="no"?>
<!DOCTYPE svg PUBLIC "-//W3C//DTD SVG 1.1//EN"
  "http://www.w3.org/Graphics/SVG/1.1/DTD/svg11.dtd">
<svg xmlns:xlink="http://www.w3.org/1999/xlink" width="576pt" height="288pt" viewBox="0 0 576 288" xmlns="http://www.w3.org/2000/svg" version="1.1">
 <metadata>
  <rdf:RDF xmlns:dc="http://purl.org/dc/elements/1.1/" xmlns:cc="http://creativecommons.org/ns#" xmlns:rdf="http://www.w3.org/1999/02/22-rdf-syntax-ns#">
   <cc:Work>
    <dc:type rdf:resource="http://purl.org/dc/dcmitype/StillImage"/>
    <dc:date>2025-01-13T15:19:30.387437</dc:date>
    <dc:format>image/svg+xml</dc:format>
    <dc:creator>
     <cc:Agent>
      <dc:title>Matplotlib v3.9.2, https://matplotlib.org/</dc:title>
     </cc:Agent>
    </dc:creator>
   </cc:Work>
  </rdf:RDF>
 </metadata>
 <defs>
  <style type="text/css">*{stroke-linejoin: round; stroke-linecap: butt}</style>
 </defs>
 <g id="figure_1">
  <g id="patch_1">
   <path d="M 0 288 
L 576 288 
L 576 0 
L 0 0 
z
" style="fill: #ffffff"/>
  </g>
  <g id="axes_1">
   <g id="patch_2">
    <path d="M 72 256.32 
L 518.4 256.32 
L 518.4 34.56 
L 72 34.56 
z
" style="fill: #ffffff"/>
   </g>
   <g id="PolyCollection_1">
    <defs>
     <path id="m54db68234c" d="M 92.290909 -142.560376 
L 92.290909 -142.56 
L 93.104172 -142.56 
L 93.917435 -142.56 
L 94.730698 -142.56 
L 95.543961 -142.56 
L 96.357224 -142.56 
L 97.170486 -142.56 
L 97.983749 -142.56 
L 98.797012 -142.56 
L 99.610275 -142.56 
L 100.423538 -142.56 
L 101.236801 -142.56 
L 102.050064 -142.56 
L 102.863327 -142.56 
L 103.67659 -142.56 
L 104.489852 -142.56 
L 105.303115 -142.56 
L 106.116378 -142.56 
L 106.929641 -142.56 
L 107.742904 -142.56 
L 108.556167 -142.56 
L 109.36943 -142.56 
L 110.182693 -142.56 
L 110.995956 -142.56 
L 111.809218 -142.56 
L 112.622481 -142.56 
L 113.435744 -142.56 
L 114.249007 -142.56 
L 115.06227 -142.56 
L 115.875533 -142.56 
L 116.688796 -142.56 
L 117.502059 -142.56 
L 118.315322 -142.56 
L 119.128584 -142.56 
L 119.941847 -142.56 
L 120.75511 -142.56 
L 121.568373 -142.56 
L 122.381636 -142.56 
L 123.194899 -142.56 
L 124.008162 -142.56 
L 124.821425 -142.56 
L 125.634688 -142.56 
L 126.44795 -142.56 
L 127.261213 -142.56 
L 128.074476 -142.56 
L 128.887739 -142.56 
L 129.701002 -142.56 
L 130.514265 -142.56 
L 131.327528 -142.56 
L 132.140791 -142.56 
L 132.954054 -142.56 
L 133.767316 -142.56 
L 134.580579 -142.56 
L 135.393842 -142.56 
L 136.207105 -142.56 
L 137.020368 -142.56 
L 137.833631 -142.56 
L 138.646894 -142.56 
L 139.460157 -142.56 
L 140.27342 -142.56 
L 141.086682 -142.56 
L 141.899945 -142.56 
L 142.713208 -142.56 
L 143.526471 -142.56 
L 144.339734 -142.56 
L 145.152997 -142.56 
L 145.96626 -142.56 
L 146.779523 -142.56 
L 147.592786 -142.56 
L 148.406048 -142.56 
L 149.219311 -142.56 
L 150.032574 -142.56 
L 150.845837 -142.56 
L 151.6591 -142.56 
L 152.472363 -142.56 
L 153.285626 -142.56 
L 154.098889 -142.56 
L 154.912152 -142.56 
L 155.725414 -142.56 
L 156.538677 -142.56 
L 157.35194 -142.56 
L 158.165203 -142.56 
L 158.978466 -142.56 
L 159.791729 -142.56 
L 160.604992 -142.56 
L 161.418255 -142.56 
L 162.231518 -142.56 
L 163.04478 -142.56 
L 163.858043 -142.56 
L 164.671306 -142.56 
L 165.484569 -142.56 
L 166.297832 -142.56 
L 167.111095 -142.56 
L 167.924358 -142.56 
L 168.737621 -142.56 
L 169.550884 -142.56 
L 170.364146 -142.56 
L 171.177409 -142.56 
L 171.990672 -142.56 
L 172.803935 -142.56 
L 173.617198 -142.56 
L 174.430461 -142.56 
L 175.243724 -142.56 
L 176.056987 -142.56 
L 176.87025 -142.56 
L 177.683512 -142.56 
L 178.496775 -142.56 
L 179.310038 -142.56 
L 180.123301 -142.56 
L 180.936564 -142.56 
L 181.749827 -142.56 
L 182.56309 -142.56 
L 183.376353 -142.56 
L 184.189616 -142.56 
L 185.002878 -142.56 
L 185.816141 -142.56 
L 186.629404 -142.56 
L 187.442667 -142.56 
L 188.25593 -142.56 
L 189.069193 -142.56 
L 189.882456 -142.56 
L 190.695719 -142.56 
L 191.508982 -142.56 
L 192.322244 -142.56 
L 193.135507 -142.56 
L 193.94877 -142.56 
L 194.762033 -142.56 
L 195.575296 -142.56 
L 196.388559 -142.56 
L 197.201822 -142.56 
L 198.015085 -142.56 
L 198.828348 -142.56 
L 199.64161 -142.56 
L 200.454873 -142.56 
L 201.268136 -142.56 
L 202.081399 -142.56 
L 202.894662 -142.56 
L 203.707925 -142.56 
L 204.521188 -142.56 
L 205.334451 -142.56 
L 206.147714 -142.56 
L 206.960976 -142.56 
L 207.774239 -142.56 
L 208.587502 -142.56 
L 209.400765 -142.56 
L 210.214028 -142.56 
L 211.027291 -142.56 
L 211.840554 -142.56 
L 212.653817 -142.56 
L 213.46708 -142.56 
L 214.280343 -142.56 
L 215.093605 -142.56 
L 215.906868 -142.56 
L 216.720131 -142.56 
L 217.533394 -142.56 
L 218.346657 -142.56 
L 219.15992 -142.56 
L 219.973183 -142.56 
L 220.786446 -142.56 
L 221.599709 -142.56 
L 222.412971 -142.56 
L 223.226234 -142.56 
L 224.039497 -142.56 
L 224.85276 -142.56 
L 225.666023 -142.56 
L 226.479286 -142.56 
L 227.292549 -142.56 
L 228.105812 -142.56 
L 228.919075 -142.56 
L 229.732337 -142.56 
L 230.5456 -142.56 
L 231.358863 -142.56 
L 232.172126 -142.56 
L 232.985389 -142.56 
L 233.798652 -142.56 
L 234.611915 -142.56 
L 235.425178 -142.56 
L 236.238441 -142.56 
L 237.051703 -142.56 
L 237.864966 -142.56 
L 238.678229 -142.56 
L 239.491492 -142.56 
L 240.304755 -142.56 
L 241.118018 -142.56 
L 241.931281 -142.56 
L 242.744544 -142.56 
L 243.557807 -142.56 
L 244.371069 -142.56 
L 245.184332 -142.56 
L 245.997595 -142.56 
L 246.810858 -142.56 
L 247.624121 -142.56 
L 248.437384 -142.56 
L 249.250647 -142.56 
L 250.06391 -142.56 
L 250.877173 -142.56 
L 251.690435 -142.56 
L 252.503698 -142.56 
L 253.316961 -142.56 
L 254.130224 -142.56 
L 254.943487 -142.56 
L 255.75675 -142.56 
L 256.570013 -142.56 
L 257.383276 -142.56 
L 258.196539 -142.56 
L 259.009801 -142.56 
L 259.823064 -142.56 
L 260.636327 -142.56 
L 261.44959 -142.56 
L 262.262853 -142.56 
L 263.076116 -142.56 
L 263.889379 -142.56 
L 264.702642 -142.56 
L 265.515905 -142.56 
L 266.329167 -142.56 
L 267.14243 -142.56 
L 267.955693 -142.56 
L 268.768956 -142.56 
L 269.582219 -142.56 
L 270.395482 -142.56 
L 271.208745 -142.56 
L 272.022008 -142.56 
L 272.835271 -142.56 
L 273.648533 -142.56 
L 274.461796 -142.56 
L 275.275059 -142.56 
L 276.088322 -142.56 
L 276.901585 -142.56 
L 277.714848 -142.56 
L 278.528111 -142.56 
L 279.341374 -142.56 
L 280.154637 -142.56 
L 280.967899 -142.56 
L 281.781162 -142.56 
L 282.594425 -142.56 
L 283.407688 -142.56 
L 284.220951 -142.56 
L 285.034214 -142.56 
L 285.847477 -142.56 
L 286.66074 -142.56 
L 287.474003 -142.56 
L 288.287265 -142.56 
L 289.100528 -142.56 
L 289.913791 -142.56 
L 290.727054 -142.56 
L 291.540317 -142.56 
L 292.35358 -142.56 
L 293.166843 -142.56 
L 293.980106 -142.56 
L 294.793369 -142.56 
L 295.606631 -142.56 
L 296.419894 -142.56 
L 297.233157 -142.56 
L 298.04642 -142.56 
L 298.859683 -142.56 
L 299.672946 -142.56 
L 300.486209 -142.56 
L 301.299472 -142.56 
L 302.112735 -142.56 
L 302.925997 -142.56 
L 303.73926 -142.56 
L 304.552523 -142.56 
L 305.365786 -142.56 
L 306.179049 -142.56 
L 306.992312 -142.56 
L 307.805575 -142.56 
L 308.618838 -142.56 
L 309.432101 -142.56 
L 310.245363 -142.56 
L 311.058626 -142.56 
L 311.871889 -142.56 
L 312.685152 -142.56 
L 313.498415 -142.56 
L 314.311678 -142.56 
L 315.124941 -142.56 
L 315.938204 -142.56 
L 316.751467 -142.56 
L 317.564729 -142.56 
L 318.377992 -142.56 
L 319.191255 -142.56 
L 320.004518 -142.56 
L 320.817781 -142.56 
L 321.631044 -142.56 
L 322.444307 -142.56 
L 323.25757 -142.56 
L 324.070833 -142.56 
L 324.884095 -142.56 
L 325.697358 -142.56 
L 326.510621 -142.56 
L 327.323884 -142.56 
L 328.137147 -142.56 
L 328.95041 -142.56 
L 329.763673 -142.56 
L 330.576936 -142.56 
L 331.390199 -142.56 
L 332.203461 -142.56 
L 333.016724 -142.56 
L 333.829987 -142.56 
L 334.64325 -142.56 
L 335.456513 -142.56 
L 336.269776 -142.56 
L 337.083039 -142.56 
L 337.896302 -142.56 
L 338.709565 -142.56 
L 339.522827 -142.56 
L 340.33609 -142.56 
L 341.149353 -142.56 
L 341.962616 -142.56 
L 342.775879 -142.56 
L 343.589142 -142.56 
L 344.402405 -142.56 
L 345.215668 -142.56 
L 346.028931 -142.56 
L 346.842193 -142.56 
L 347.655456 -142.56 
L 348.468719 -142.56 
L 349.281982 -142.56 
L 350.095245 -142.56 
L 350.908508 -142.56 
L 351.721771 -142.56 
L 352.535034 -142.56 
L 353.348297 -142.56 
L 354.161559 -142.56 
L 354.974822 -142.56 
L 355.788085 -142.56 
L 356.601348 -142.56 
L 357.414611 -142.56 
L 358.227874 -142.56 
L 359.041137 -142.56 
L 359.8544 -142.56 
L 360.667663 -142.56 
L 361.480925 -142.56 
L 362.294188 -142.56 
L 363.107451 -142.56 
L 363.920714 -142.56 
L 364.733977 -142.56 
L 365.54724 -142.56 
L 366.360503 -142.56 
L 367.173766 -142.56 
L 367.987029 -142.56 
L 368.800291 -142.56 
L 369.613554 -142.56 
L 370.426817 -142.56 
L 371.24008 -142.56 
L 372.053343 -142.56 
L 372.866606 -142.56 
L 373.679869 -142.56 
L 374.493132 -142.56 
L 375.306395 -142.56 
L 376.119657 -142.56 
L 376.93292 -142.56 
L 377.746183 -142.56 
L 378.559446 -142.56 
L 379.372709 -142.56 
L 380.185972 -142.56 
L 380.999235 -142.56 
L 381.812498 -142.56 
L 382.625761 -142.56 
L 383.439024 -142.56 
L 384.252286 -142.56 
L 385.065549 -142.56 
L 385.878812 -142.56 
L 386.692075 -142.56 
L 387.505338 -142.56 
L 388.318601 -142.56 
L 389.131864 -142.56 
L 389.945127 -142.56 
L 390.75839 -142.56 
L 391.571652 -142.56 
L 392.384915 -142.56 
L 393.198178 -142.56 
L 394.011441 -142.56 
L 394.824704 -142.56 
L 395.637967 -142.56 
L 396.45123 -142.56 
L 397.264493 -142.56 
L 398.077756 -142.56 
L 398.891018 -142.56 
L 399.704281 -142.56 
L 400.517544 -142.56 
L 401.330807 -142.56 
L 402.14407 -142.56 
L 402.957333 -142.56 
L 403.770596 -142.56 
L 404.583859 -142.56 
L 405.397122 -142.56 
L 406.210384 -142.56 
L 407.023647 -142.56 
L 407.83691 -142.56 
L 408.650173 -142.56 
L 409.463436 -142.56 
L 410.276699 -142.56 
L 411.089962 -142.56 
L 411.903225 -142.56 
L 412.716488 -142.56 
L 413.52975 -142.56 
L 414.343013 -142.56 
L 415.156276 -142.56 
L 415.969539 -142.56 
L 416.782802 -142.56 
L 417.596065 -142.56 
L 418.409328 -142.56 
L 419.222591 -142.56 
L 420.035854 -142.56 
L 420.849116 -142.56 
L 421.662379 -142.56 
L 422.475642 -142.56 
L 423.288905 -142.56 
L 424.102168 -142.56 
L 424.915431 -142.56 
L 425.728694 -142.56 
L 426.541957 -142.56 
L 427.35522 -142.56 
L 428.168482 -142.56 
L 428.981745 -142.56 
L 429.795008 -142.56 
L 430.608271 -142.56 
L 431.421534 -142.56 
L 432.234797 -142.56 
L 433.04806 -142.56 
L 433.861323 -142.56 
L 434.674586 -142.56 
L 435.487848 -142.56 
L 436.301111 -142.56 
L 437.114374 -142.56 
L 437.927637 -142.56 
L 438.7409 -142.56 
L 439.554163 -142.56 
L 440.367426 -142.56 
L 441.180689 -142.56 
L 441.993952 -142.56 
L 442.807214 -142.56 
L 443.620477 -142.56 
L 444.43374 -142.56 
L 445.247003 -142.56 
L 446.060266 -142.56 
L 446.873529 -142.56 
L 447.686792 -142.56 
L 448.500055 -142.56 
L 449.313318 -142.56 
L 450.12658 -142.56 
L 450.939843 -142.56 
L 451.753106 -142.56 
L 452.566369 -142.56 
L 453.379632 -142.56 
L 454.192895 -142.56 
L 455.006158 -142.56 
L 455.819421 -142.56 
L 456.632684 -142.56 
L 457.445946 -142.56 
L 458.259209 -142.56 
L 459.072472 -142.56 
L 459.885735 -142.56 
L 460.698998 -142.56 
L 461.512261 -142.56 
L 462.325524 -142.56 
L 463.138787 -142.56 
L 463.95205 -142.56 
L 464.765312 -142.56 
L 465.578575 -142.56 
L 466.391838 -142.56 
L 467.205101 -142.56 
L 468.018364 -142.56 
L 468.831627 -142.56 
L 469.64489 -142.56 
L 470.458153 -142.56 
L 471.271416 -142.56 
L 472.084678 -142.56 
L 472.897941 -142.56 
L 473.711204 -142.56 
L 474.524467 -142.56 
L 475.33773 -142.56 
L 476.150993 -142.56 
L 476.964256 -142.56 
L 477.777519 -142.56 
L 478.590782 -142.56 
L 479.404044 -142.56 
L 480.217307 -142.56 
L 481.03057 -142.56 
L 481.843833 -142.56 
L 482.657096 -142.56 
L 483.470359 -142.56 
L 484.283622 -142.56 
L 485.096885 -142.56 
L 485.910148 -142.56 
L 486.72341 -142.56 
L 487.536673 -142.56 
L 488.349936 -142.56 
L 489.163199 -142.56 
L 489.976462 -142.56 
L 490.789725 -142.56 
L 491.602988 -142.56 
L 492.416251 -142.56 
L 493.229514 -142.56 
L 494.042776 -142.56 
L 494.856039 -142.56 
L 495.669302 -142.56 
L 496.482565 -142.56 
L 497.295828 -142.56 
L 498.109091 -142.56 
L 498.109091 -142.560376 
L 498.109091 -142.560376 
L 497.295828 -142.560415 
L 496.482565 -142.560459 
L 495.669302 -142.560506 
L 494.856039 -142.560559 
L 494.042776 -142.560617 
L 493.229514 -142.56068 
L 492.416251 -142.56075 
L 491.602988 -142.560827 
L 490.789725 -142.560911 
L 489.976462 -142.561003 
L 489.163199 -142.561104 
L 488.349936 -142.561215 
L 487.536673 -142.561336 
L 486.72341 -142.561469 
L 485.910148 -142.561614 
L 485.096885 -142.561773 
L 484.283622 -142.561947 
L 483.470359 -142.562137 
L 482.657096 -142.562345 
L 481.843833 -142.562572 
L 481.03057 -142.562819 
L 480.217307 -142.56309 
L 479.404044 -142.563385 
L 478.590782 -142.563706 
L 477.777519 -142.564057 
L 476.964256 -142.564439 
L 476.150993 -142.564855 
L 475.33773 -142.565307 
L 474.524467 -142.5658 
L 473.711204 -142.566336 
L 472.897941 -142.566918 
L 472.084678 -142.567551 
L 471.271416 -142.568239 
L 470.458153 -142.568985 
L 469.64489 -142.569796 
L 468.831627 -142.570675 
L 468.018364 -142.571628 
L 467.205101 -142.572661 
L 466.391838 -142.573781 
L 465.578575 -142.574994 
L 464.765312 -142.576306 
L 463.95205 -142.577727 
L 463.138787 -142.579264 
L 462.325524 -142.580925 
L 461.512261 -142.582721 
L 460.698998 -142.584661 
L 459.885735 -142.586755 
L 459.072472 -142.589016 
L 458.259209 -142.591456 
L 457.445946 -142.594087 
L 456.632684 -142.596923 
L 455.819421 -142.599979 
L 455.006158 -142.60327 
L 454.192895 -142.606814 
L 453.379632 -142.610627 
L 452.566369 -142.614729 
L 451.753106 -142.61914 
L 450.939843 -142.623881 
L 450.12658 -142.628974 
L 449.313318 -142.634443 
L 448.500055 -142.640313 
L 447.686792 -142.646612 
L 446.873529 -142.653367 
L 446.060266 -142.660608 
L 445.247003 -142.668368 
L 444.43374 -142.676679 
L 443.620477 -142.685577 
L 442.807214 -142.695099 
L 441.993952 -142.705286 
L 441.180689 -142.716177 
L 440.367426 -142.727818 
L 439.554163 -142.740253 
L 438.7409 -142.753533 
L 437.927637 -142.767707 
L 437.114374 -142.78283 
L 436.301111 -142.798958 
L 435.487848 -142.816151 
L 434.674586 -142.83447 
L 433.861323 -142.853982 
L 433.04806 -142.874754 
L 432.234797 -142.896858 
L 431.421534 -142.92037 
L 430.608271 -142.945368 
L 429.795008 -142.971935 
L 428.981745 -143.000156 
L 428.168482 -143.030123 
L 427.35522 -143.061927 
L 426.541957 -143.095668 
L 425.728694 -143.131448 
L 424.915431 -143.169373 
L 424.102168 -143.209554 
L 423.288905 -143.252106 
L 422.475642 -143.29715 
L 421.662379 -143.34481 
L 420.849116 -143.395216 
L 420.035854 -143.448502 
L 419.222591 -143.504809 
L 418.409328 -143.56428 
L 417.596065 -143.627067 
L 416.782802 -143.693323 
L 415.969539 -143.763211 
L 415.156276 -143.836895 
L 414.343013 -143.914547 
L 413.52975 -143.996344 
L 412.716488 -144.08247 
L 411.903225 -144.173112 
L 411.089962 -144.268464 
L 410.276699 -144.368725 
L 409.463436 -144.474102 
L 408.650173 -144.584805 
L 407.83691 -144.70105 
L 407.023647 -144.82306 
L 406.210384 -144.951062 
L 405.397122 -145.08529 
L 404.583859 -145.225982 
L 403.770596 -145.373383 
L 402.957333 -145.527741 
L 402.14407 -145.689311 
L 401.330807 -145.858353 
L 400.517544 -146.03513 
L 399.704281 -146.219911 
L 398.891018 -146.41297 
L 398.077756 -146.614584 
L 397.264493 -146.825034 
L 396.45123 -147.044607 
L 395.637967 -147.27359 
L 394.824704 -147.512276 
L 394.011441 -147.760959 
L 393.198178 -148.019937 
L 392.384915 -148.289509 
L 391.571652 -148.569976 
L 390.75839 -148.861641 
L 389.945127 -149.164808 
L 389.131864 -149.479781 
L 388.318601 -149.806862 
L 387.505338 -150.146357 
L 386.692075 -150.498568 
L 385.878812 -150.863795 
L 385.065549 -151.242337 
L 384.252286 -151.634491 
L 383.439024 -152.040549 
L 382.625761 -152.4608 
L 381.812498 -152.895528 
L 380.999235 -153.345012 
L 380.185972 -153.809525 
L 379.372709 -154.289333 
L 378.559446 -154.784695 
L 377.746183 -155.295862 
L 376.93292 -155.823075 
L 376.119657 -156.366567 
L 375.306395 -156.926559 
L 374.493132 -157.503262 
L 373.679869 -158.096874 
L 372.866606 -158.70758 
L 372.053343 -159.335553 
L 371.24008 -159.98095 
L 370.426817 -160.643913 
L 369.613554 -161.324568 
L 368.800291 -162.023024 
L 367.987029 -162.739372 
L 367.173766 -163.473685 
L 366.360503 -164.226016 
L 365.54724 -164.996398 
L 364.733977 -165.784844 
L 363.920714 -166.591344 
L 363.107451 -167.415866 
L 362.294188 -168.258355 
L 361.480925 -169.118732 
L 360.667663 -169.996893 
L 359.8544 -170.892709 
L 359.041137 -171.806027 
L 358.227874 -172.736664 
L 357.414611 -173.684412 
L 356.601348 -174.649037 
L 355.788085 -175.630274 
L 354.974822 -176.627831 
L 354.161559 -177.641387 
L 353.348297 -178.670593 
L 352.535034 -179.715068 
L 351.721771 -180.774405 
L 350.908508 -181.848162 
L 350.095245 -182.935873 
L 349.281982 -184.037036 
L 348.468719 -185.151122 
L 347.655456 -186.277573 
L 346.842193 -187.415798 
L 346.028931 -188.565178 
L 345.215668 -189.725064 
L 344.402405 -190.894778 
L 343.589142 -192.073613 
L 342.775879 -193.260832 
L 341.962616 -194.455672 
L 341.149353 -195.657342 
L 340.33609 -196.865024 
L 339.522827 -198.077873 
L 338.709565 -199.295021 
L 337.896302 -200.515572 
L 337.083039 -201.738611 
L 336.269776 -202.963196 
L 335.456513 -204.188366 
L 334.64325 -205.41314 
L 333.829987 -206.636516 
L 333.016724 -207.857474 
L 332.203461 -209.074979 
L 331.390199 -210.28798 
L 330.576936 -211.495412 
L 329.763673 -212.696196 
L 328.95041 -213.889245 
L 328.137147 -215.073461 
L 327.323884 -216.247737 
L 326.510621 -217.410964 
L 325.697358 -218.562024 
L 324.884095 -219.699799 
L 324.070833 -220.82317 
L 323.25757 -221.931018 
L 322.444307 -223.022228 
L 321.631044 -224.095688 
L 320.817781 -225.150294 
L 320.004518 -226.18495 
L 319.191255 -227.198569 
L 318.377992 -228.190078 
L 317.564729 -229.158417 
L 316.751467 -230.102542 
L 315.938204 -231.021426 
L 315.124941 -231.914063 
L 314.311678 -232.779467 
L 313.498415 -233.616677 
L 312.685152 -234.424755 
L 311.871889 -235.202791 
L 311.058626 -235.949904 
L 310.245363 -236.66524 
L 309.432101 -237.347981 
L 308.618838 -237.997339 
L 307.805575 -238.612563 
L 306.992312 -239.192937 
L 306.179049 -239.737783 
L 305.365786 -240.246462 
L 304.552523 -240.718374 
L 303.73926 -241.152963 
L 302.925997 -241.549713 
L 302.112735 -241.908153 
L 301.299472 -242.227856 
L 300.486209 -242.50844 
L 299.672946 -242.749569 
L 298.859683 -242.950954 
L 298.04642 -243.112354 
L 297.233157 -243.233574 
L 296.419894 -243.314468 
L 295.606631 -243.35494 
L 294.793369 -243.35494 
L 293.980106 -243.314468 
L 293.166843 -243.233574 
L 292.35358 -243.112354 
L 291.540317 -242.950954 
L 290.727054 -242.749569 
L 289.913791 -242.50844 
L 289.100528 -242.227856 
L 288.287265 -241.908153 
L 287.474003 -241.549713 
L 286.66074 -241.152963 
L 285.847477 -240.718374 
L 285.034214 -240.246462 
L 284.220951 -239.737783 
L 283.407688 -239.192937 
L 282.594425 -238.612563 
L 281.781162 -237.997339 
L 280.967899 -237.347981 
L 280.154637 -236.66524 
L 279.341374 -235.949904 
L 278.528111 -235.202791 
L 277.714848 -234.424755 
L 276.901585 -233.616677 
L 276.088322 -232.779467 
L 275.275059 -231.914063 
L 274.461796 -231.021426 
L 273.648533 -230.102542 
L 272.835271 -229.158417 
L 272.022008 -228.190078 
L 271.208745 -227.198569 
L 270.395482 -226.18495 
L 269.582219 -225.150294 
L 268.768956 -224.095688 
L 267.955693 -223.022228 
L 267.14243 -221.931018 
L 266.329167 -220.82317 
L 265.515905 -219.699799 
L 264.702642 -218.562024 
L 263.889379 -217.410964 
L 263.076116 -216.247737 
L 262.262853 -215.073461 
L 261.44959 -213.889245 
L 260.636327 -212.696196 
L 259.823064 -211.495412 
L 259.009801 -210.28798 
L 258.196539 -209.074979 
L 257.383276 -207.857474 
L 256.570013 -206.636516 
L 255.75675 -205.41314 
L 254.943487 -204.188366 
L 254.130224 -202.963196 
L 253.316961 -201.738611 
L 252.503698 -200.515572 
L 251.690435 -199.295021 
L 250.877173 -198.077873 
L 250.06391 -196.865024 
L 249.250647 -195.657342 
L 248.437384 -194.455672 
L 247.624121 -193.260832 
L 246.810858 -192.073613 
L 245.997595 -190.894778 
L 245.184332 -189.725064 
L 244.371069 -188.565178 
L 243.557807 -187.415798 
L 242.744544 -186.277573 
L 241.931281 -185.151122 
L 241.118018 -184.037036 
L 240.304755 -182.935873 
L 239.491492 -181.848162 
L 238.678229 -180.774405 
L 237.864966 -179.715068 
L 237.051703 -178.670593 
L 236.238441 -177.641387 
L 235.425178 -176.627831 
L 234.611915 -175.630274 
L 233.798652 -174.649037 
L 232.985389 -173.684412 
L 232.172126 -172.736664 
L 231.358863 -171.806027 
L 230.5456 -170.892709 
L 229.732337 -169.996893 
L 228.919075 -169.118732 
L 228.105812 -168.258355 
L 227.292549 -167.415866 
L 226.479286 -166.591344 
L 225.666023 -165.784844 
L 224.85276 -164.996398 
L 224.039497 -164.226016 
L 223.226234 -163.473685 
L 222.412971 -162.739372 
L 221.599709 -162.023024 
L 220.786446 -161.324568 
L 219.973183 -160.643913 
L 219.15992 -159.98095 
L 218.346657 -159.335553 
L 217.533394 -158.70758 
L 216.720131 -158.096874 
L 215.906868 -157.503262 
L 215.093605 -156.926559 
L 214.280343 -156.366567 
L 213.46708 -155.823075 
L 212.653817 -155.295862 
L 211.840554 -154.784695 
L 211.027291 -154.289333 
L 210.214028 -153.809525 
L 209.400765 -153.345012 
L 208.587502 -152.895528 
L 207.774239 -152.4608 
L 206.960976 -152.040549 
L 206.147714 -151.634491 
L 205.334451 -151.242337 
L 204.521188 -150.863795 
L 203.707925 -150.498568 
L 202.894662 -150.146357 
L 202.081399 -149.806862 
L 201.268136 -149.479781 
L 200.454873 -149.164808 
L 199.64161 -148.861641 
L 198.828348 -148.569976 
L 198.015085 -148.289509 
L 197.201822 -148.019937 
L 196.388559 -147.760959 
L 195.575296 -147.512276 
L 194.762033 -147.27359 
L 193.94877 -147.044607 
L 193.135507 -146.825034 
L 192.322244 -146.614584 
L 191.508982 -146.41297 
L 190.695719 -146.219911 
L 189.882456 -146.03513 
L 189.069193 -145.858353 
L 188.25593 -145.689311 
L 187.442667 -145.527741 
L 186.629404 -145.373383 
L 185.816141 -145.225982 
L 185.002878 -145.08529 
L 184.189616 -144.951062 
L 183.376353 -144.82306 
L 182.56309 -144.70105 
L 181.749827 -144.584805 
L 180.936564 -144.474102 
L 180.123301 -144.368725 
L 179.310038 -144.268464 
L 178.496775 -144.173112 
L 177.683512 -144.08247 
L 176.87025 -143.996344 
L 176.056987 -143.914547 
L 175.243724 -143.836895 
L 174.430461 -143.763211 
L 173.617198 -143.693323 
L 172.803935 -143.627067 
L 171.990672 -143.56428 
L 171.177409 -143.504809 
L 170.364146 -143.448502 
L 169.550884 -143.395216 
L 168.737621 -143.34481 
L 167.924358 -143.29715 
L 167.111095 -143.252106 
L 166.297832 -143.209554 
L 165.484569 -143.169373 
L 164.671306 -143.131448 
L 163.858043 -143.095668 
L 163.04478 -143.061927 
L 162.231518 -143.030123 
L 161.418255 -143.000156 
L 160.604992 -142.971935 
L 159.791729 -142.945368 
L 158.978466 -142.92037 
L 158.165203 -142.896858 
L 157.35194 -142.874754 
L 156.538677 -142.853982 
L 155.725414 -142.83447 
L 154.912152 -142.816151 
L 154.098889 -142.798958 
L 153.285626 -142.78283 
L 152.472363 -142.767707 
L 151.6591 -142.753533 
L 150.845837 -142.740253 
L 150.032574 -142.727818 
L 149.219311 -142.716177 
L 148.406048 -142.705286 
L 147.592786 -142.695099 
L 146.779523 -142.685577 
L 145.96626 -142.676679 
L 145.152997 -142.668368 
L 144.339734 -142.660608 
L 143.526471 -142.653367 
L 142.713208 -142.646612 
L 141.899945 -142.640313 
L 141.086682 -142.634443 
L 140.27342 -142.628974 
L 139.460157 -142.623881 
L 138.646894 -142.61914 
L 137.833631 -142.614729 
L 137.020368 -142.610627 
L 136.207105 -142.606814 
L 135.393842 -142.60327 
L 134.580579 -142.599979 
L 133.767316 -142.596923 
L 132.954054 -142.594087 
L 132.140791 -142.591456 
L 131.327528 -142.589016 
L 130.514265 -142.586755 
L 129.701002 -142.584661 
L 128.887739 -142.582721 
L 128.074476 -142.580925 
L 127.261213 -142.579264 
L 126.44795 -142.577727 
L 125.634688 -142.576306 
L 124.821425 -142.574994 
L 124.008162 -142.573781 
L 123.194899 -142.572661 
L 122.381636 -142.571628 
L 121.568373 -142.570675 
L 120.75511 -142.569796 
L 119.941847 -142.568985 
L 119.128584 -142.568239 
L 118.315322 -142.567551 
L 117.502059 -142.566918 
L 116.688796 -142.566336 
L 115.875533 -142.5658 
L 115.06227 -142.565307 
L 114.249007 -142.564855 
L 113.435744 -142.564439 
L 112.622481 -142.564057 
L 111.809218 -142.563706 
L 110.995956 -142.563385 
L 110.182693 -142.56309 
L 109.36943 -142.562819 
L 108.556167 -142.562572 
L 107.742904 -142.562345 
L 106.929641 -142.562137 
L 106.116378 -142.561947 
L 105.303115 -142.561773 
L 104.489852 -142.561614 
L 103.67659 -142.561469 
L 102.863327 -142.561336 
L 102.050064 -142.561215 
L 101.236801 -142.561104 
L 100.423538 -142.561003 
L 99.610275 -142.560911 
L 98.797012 -142.560827 
L 97.983749 -142.56075 
L 97.170486 -142.56068 
L 96.357224 -142.560617 
L 95.543961 -142.560559 
L 94.730698 -142.560506 
L 93.917435 -142.560459 
L 93.104172 -142.560415 
L 92.290909 -142.560376 
z
" style="stroke: #008000; stroke-opacity: 0.2"/>
    </defs>
    <g clip-path="url(#peb58b02601)">
     <use xlink:href="#m54db68234c" x="0" y="288" style="fill: #008000; fill-opacity: 0.2; stroke: #008000; stroke-opacity: 0.2"/>
    </g>
   </g>
   <g id="PolyCollection_2">
    <defs>
     <path id="m2d9ca8826c" d="M 92.290909 -41.76 
L 92.290909 -142.56 
L 93.104172 -142.56 
L 93.917435 -142.56 
L 94.730698 -142.56 
L 95.543961 -142.56 
L 96.357224 -142.56 
L 97.170486 -142.56 
L 97.983749 -142.56 
L 98.797012 -142.56 
L 99.610275 -142.56 
L 100.423538 -142.56 
L 101.236801 -142.56 
L 102.050064 -142.56 
L 102.863327 -142.56 
L 103.67659 -142.56 
L 104.489852 -142.56 
L 105.303115 -142.56 
L 106.116378 -142.56 
L 106.929641 -142.56 
L 107.742904 -142.56 
L 108.556167 -142.56 
L 109.36943 -142.56 
L 110.182693 -142.56 
L 110.995956 -142.56 
L 111.809218 -142.56 
L 112.622481 -142.56 
L 113.435744 -142.56 
L 114.249007 -142.56 
L 115.06227 -142.56 
L 115.875533 -142.56 
L 116.688796 -142.56 
L 117.502059 -142.56 
L 118.315322 -142.56 
L 119.128584 -142.56 
L 119.941847 -142.56 
L 120.75511 -142.56 
L 121.568373 -142.56 
L 122.381636 -142.56 
L 123.194899 -142.56 
L 124.008162 -142.56 
L 124.821425 -142.56 
L 125.634688 -142.56 
L 126.44795 -142.56 
L 127.261213 -142.56 
L 128.074476 -142.56 
L 128.887739 -142.56 
L 129.701002 -142.56 
L 130.514265 -142.56 
L 131.327528 -142.56 
L 132.140791 -142.56 
L 132.954054 -142.56 
L 133.767316 -142.56 
L 134.580579 -142.56 
L 135.393842 -142.56 
L 136.207105 -142.56 
L 137.020368 -142.56 
L 137.833631 -142.56 
L 138.646894 -142.56 
L 139.460157 -142.56 
L 140.27342 -142.56 
L 141.086682 -142.56 
L 141.899945 -142.56 
L 142.713208 -142.56 
L 143.526471 -142.56 
L 144.339734 -142.56 
L 145.152997 -142.56 
L 145.96626 -142.56 
L 146.779523 -142.56 
L 147.592786 -142.56 
L 148.406048 -142.56 
L 149.219311 -142.56 
L 150.032574 -142.56 
L 150.845837 -142.56 
L 151.6591 -142.56 
L 152.472363 -142.56 
L 153.285626 -142.56 
L 154.098889 -142.56 
L 154.912152 -142.56 
L 155.725414 -142.56 
L 156.538677 -142.56 
L 157.35194 -142.56 
L 158.165203 -142.56 
L 158.978466 -142.56 
L 159.791729 -142.56 
L 160.604992 -142.56 
L 161.418255 -142.56 
L 162.231518 -142.56 
L 163.04478 -142.56 
L 163.858043 -142.56 
L 164.671306 -142.56 
L 165.484569 -142.56 
L 166.297832 -142.56 
L 167.111095 -142.56 
L 167.924358 -142.56 
L 168.737621 -142.56 
L 169.550884 -142.56 
L 170.364146 -142.56 
L 171.177409 -142.56 
L 171.990672 -142.56 
L 172.803935 -142.56 
L 173.617198 -142.56 
L 174.430461 -142.56 
L 175.243724 -142.56 
L 176.056987 -142.56 
L 176.87025 -142.56 
L 177.683512 -142.56 
L 178.496775 -142.56 
L 179.310038 -142.56 
L 180.123301 -142.56 
L 180.936564 -142.56 
L 181.749827 -142.56 
L 182.56309 -142.56 
L 183.376353 -142.56 
L 184.189616 -142.56 
L 185.002878 -142.56 
L 185.816141 -142.56 
L 186.629404 -142.56 
L 187.442667 -142.56 
L 188.25593 -142.56 
L 189.069193 -142.56 
L 189.882456 -142.56 
L 190.695719 -142.56 
L 191.508982 -142.56 
L 192.322244 -142.56 
L 193.135507 -142.56 
L 193.94877 -142.56 
L 194.762033 -142.56 
L 195.575296 -142.56 
L 196.388559 -142.56 
L 197.201822 -142.56 
L 198.015085 -142.56 
L 198.828348 -142.56 
L 199.64161 -142.56 
L 200.454873 -142.56 
L 201.268136 -142.56 
L 202.081399 -142.56 
L 202.894662 -142.56 
L 203.707925 -142.56 
L 204.521188 -142.56 
L 205.334451 -142.56 
L 206.147714 -142.56 
L 206.960976 -142.56 
L 207.774239 -142.56 
L 208.587502 -142.56 
L 209.400765 -142.56 
L 210.214028 -142.56 
L 211.027291 -142.56 
L 211.840554 -142.56 
L 212.653817 -142.56 
L 213.46708 -142.56 
L 214.280343 -142.56 
L 215.093605 -142.56 
L 215.906868 -142.56 
L 216.720131 -142.56 
L 217.533394 -142.56 
L 218.346657 -142.56 
L 219.15992 -142.56 
L 219.973183 -142.56 
L 220.786446 -142.56 
L 221.599709 -142.56 
L 222.412971 -142.56 
L 223.226234 -142.56 
L 224.039497 -142.56 
L 224.85276 -142.56 
L 225.666023 -142.56 
L 226.479286 -142.56 
L 227.292549 -142.56 
L 228.105812 -142.56 
L 228.919075 -142.56 
L 229.732337 -142.56 
L 230.5456 -142.56 
L 231.358863 -142.56 
L 232.172126 -142.56 
L 232.985389 -142.56 
L 233.798652 -142.56 
L 234.611915 -142.56 
L 235.425178 -142.56 
L 236.238441 -142.56 
L 237.051703 -142.56 
L 237.864966 -142.56 
L 238.678229 -142.56 
L 239.491492 -142.56 
L 240.304755 -142.56 
L 241.118018 -142.56 
L 241.931281 -142.56 
L 242.744544 -142.56 
L 243.557807 -142.56 
L 244.371069 -142.56 
L 245.184332 -142.56 
L 245.997595 -142.56 
L 246.810858 -142.56 
L 247.624121 -142.56 
L 248.437384 -142.56 
L 249.250647 -142.56 
L 250.06391 -142.56 
L 250.877173 -142.56 
L 251.690435 -142.56 
L 252.503698 -142.56 
L 253.316961 -142.56 
L 254.130224 -142.56 
L 254.943487 -142.56 
L 255.75675 -142.56 
L 256.570013 -142.56 
L 257.383276 -142.56 
L 258.196539 -142.56 
L 259.009801 -142.56 
L 259.823064 -142.56 
L 260.636327 -142.56 
L 261.44959 -142.56 
L 262.262853 -142.56 
L 263.076116 -142.56 
L 263.889379 -142.56 
L 264.702642 -142.56 
L 265.515905 -142.56 
L 266.329167 -142.56 
L 267.14243 -142.56 
L 267.955693 -142.56 
L 268.768956 -142.56 
L 269.582219 -142.56 
L 270.395482 -142.56 
L 271.208745 -142.56 
L 272.022008 -142.56 
L 272.835271 -142.56 
L 273.648533 -142.56 
L 274.461796 -142.56 
L 275.275059 -142.56 
L 276.088322 -142.56 
L 276.901585 -142.56 
L 277.714848 -142.56 
L 278.528111 -142.56 
L 279.341374 -142.56 
L 280.154637 -142.56 
L 280.967899 -142.56 
L 281.781162 -142.56 
L 282.594425 -142.56 
L 283.407688 -142.56 
L 284.220951 -142.56 
L 285.034214 -142.56 
L 285.847477 -142.56 
L 286.66074 -142.56 
L 287.474003 -142.56 
L 288.287265 -142.56 
L 289.100528 -142.56 
L 289.913791 -142.56 
L 290.727054 -142.56 
L 291.540317 -142.56 
L 292.35358 -142.56 
L 293.166843 -142.56 
L 293.980106 -142.56 
L 294.793369 -142.56 
L 295.606631 -142.56 
L 296.419894 -142.56 
L 297.233157 -142.56 
L 298.04642 -142.56 
L 298.859683 -142.56 
L 299.672946 -142.56 
L 300.486209 -142.56 
L 301.299472 -142.56 
L 302.112735 -142.56 
L 302.925997 -142.56 
L 303.73926 -142.56 
L 304.552523 -142.56 
L 305.365786 -142.56 
L 306.179049 -142.56 
L 306.992312 -142.56 
L 307.805575 -142.56 
L 308.618838 -142.56 
L 309.432101 -142.56 
L 310.245363 -142.56 
L 311.058626 -142.56 
L 311.871889 -142.56 
L 312.685152 -142.56 
L 313.498415 -142.56 
L 314.311678 -142.56 
L 315.124941 -142.56 
L 315.938204 -142.56 
L 316.751467 -142.56 
L 317.564729 -142.56 
L 318.377992 -142.56 
L 319.191255 -142.56 
L 320.004518 -142.56 
L 320.817781 -142.56 
L 321.631044 -142.56 
L 322.444307 -142.56 
L 323.25757 -142.56 
L 324.070833 -142.56 
L 324.884095 -142.56 
L 325.697358 -142.56 
L 326.510621 -142.56 
L 327.323884 -142.56 
L 328.137147 -142.56 
L 328.95041 -142.56 
L 329.763673 -142.56 
L 330.576936 -142.56 
L 331.390199 -142.56 
L 332.203461 -142.56 
L 333.016724 -142.56 
L 333.829987 -142.56 
L 334.64325 -142.56 
L 335.456513 -142.56 
L 336.269776 -142.56 
L 337.083039 -142.56 
L 337.896302 -142.56 
L 338.709565 -142.56 
L 339.522827 -142.56 
L 340.33609 -142.56 
L 341.149353 -142.56 
L 341.962616 -142.56 
L 342.775879 -142.56 
L 343.589142 -142.56 
L 344.402405 -142.56 
L 345.215668 -142.56 
L 346.028931 -142.56 
L 346.842193 -142.56 
L 347.655456 -142.56 
L 348.468719 -142.56 
L 349.281982 -142.56 
L 350.095245 -142.56 
L 350.908508 -142.56 
L 351.721771 -142.56 
L 352.535034 -142.56 
L 353.348297 -142.56 
L 354.161559 -142.56 
L 354.974822 -142.56 
L 355.788085 -142.56 
L 356.601348 -142.56 
L 357.414611 -142.56 
L 358.227874 -142.56 
L 359.041137 -142.56 
L 359.8544 -142.56 
L 360.667663 -142.56 
L 361.480925 -142.56 
L 362.294188 -142.56 
L 363.107451 -142.56 
L 363.920714 -142.56 
L 364.733977 -142.56 
L 365.54724 -142.56 
L 366.360503 -142.56 
L 367.173766 -142.56 
L 367.987029 -142.56 
L 368.800291 -142.56 
L 369.613554 -142.56 
L 370.426817 -142.56 
L 371.24008 -142.56 
L 372.053343 -142.56 
L 372.866606 -142.56 
L 373.679869 -142.56 
L 374.493132 -142.56 
L 375.306395 -142.56 
L 376.119657 -142.56 
L 376.93292 -142.56 
L 377.746183 -142.56 
L 378.559446 -142.56 
L 379.372709 -142.56 
L 380.185972 -142.56 
L 380.999235 -142.56 
L 381.812498 -142.56 
L 382.625761 -142.56 
L 383.439024 -142.56 
L 384.252286 -142.56 
L 385.065549 -142.56 
L 385.878812 -142.56 
L 386.692075 -142.56 
L 387.505338 -142.56 
L 388.318601 -142.56 
L 389.131864 -142.56 
L 389.945127 -142.56 
L 390.75839 -142.56 
L 391.571652 -142.56 
L 392.384915 -142.56 
L 393.198178 -142.56 
L 394.011441 -142.56 
L 394.824704 -142.56 
L 395.637967 -142.56 
L 396.45123 -142.56 
L 397.264493 -142.56 
L 398.077756 -142.56 
L 398.891018 -142.56 
L 399.704281 -142.56 
L 400.517544 -142.56 
L 401.330807 -142.56 
L 402.14407 -142.56 
L 402.957333 -142.56 
L 403.770596 -142.56 
L 404.583859 -142.56 
L 405.397122 -142.56 
L 406.210384 -142.56 
L 407.023647 -142.56 
L 407.83691 -142.56 
L 408.650173 -142.56 
L 409.463436 -142.56 
L 410.276699 -142.56 
L 411.089962 -142.56 
L 411.903225 -142.56 
L 412.716488 -142.56 
L 413.52975 -142.56 
L 414.343013 -142.56 
L 415.156276 -142.56 
L 415.969539 -142.56 
L 416.782802 -142.56 
L 417.596065 -142.56 
L 418.409328 -142.56 
L 419.222591 -142.56 
L 420.035854 -142.56 
L 420.849116 -142.56 
L 421.662379 -142.56 
L 422.475642 -142.56 
L 423.288905 -142.56 
L 424.102168 -142.56 
L 424.915431 -142.56 
L 425.728694 -142.56 
L 426.541957 -142.56 
L 427.35522 -142.56 
L 428.168482 -142.56 
L 428.981745 -142.56 
L 429.795008 -142.56 
L 430.608271 -142.56 
L 431.421534 -142.56 
L 432.234797 -142.56 
L 433.04806 -142.56 
L 433.861323 -142.56 
L 434.674586 -142.56 
L 435.487848 -142.56 
L 436.301111 -142.56 
L 437.114374 -142.56 
L 437.927637 -142.56 
L 438.7409 -142.56 
L 439.554163 -142.56 
L 440.367426 -142.56 
L 441.180689 -142.56 
L 441.993952 -142.56 
L 442.807214 -142.56 
L 443.620477 -142.56 
L 444.43374 -142.56 
L 445.247003 -142.56 
L 446.060266 -142.56 
L 446.873529 -142.56 
L 447.686792 -142.56 
L 448.500055 -142.56 
L 449.313318 -142.56 
L 450.12658 -142.56 
L 450.939843 -142.56 
L 451.753106 -142.56 
L 452.566369 -142.56 
L 453.379632 -142.56 
L 454.192895 -142.56 
L 455.006158 -142.56 
L 455.819421 -142.56 
L 456.632684 -142.56 
L 457.445946 -142.56 
L 458.259209 -142.56 
L 459.072472 -142.56 
L 459.885735 -142.56 
L 460.698998 -142.56 
L 461.512261 -142.56 
L 462.325524 -142.56 
L 463.138787 -142.56 
L 463.95205 -142.56 
L 464.765312 -142.56 
L 465.578575 -142.56 
L 466.391838 -142.56 
L 467.205101 -142.56 
L 468.018364 -142.56 
L 468.831627 -142.56 
L 469.64489 -142.56 
L 470.458153 -142.56 
L 471.271416 -142.56 
L 472.084678 -142.56 
L 472.897941 -142.56 
L 473.711204 -142.56 
L 474.524467 -142.56 
L 475.33773 -142.56 
L 476.150993 -142.56 
L 476.964256 -142.56 
L 477.777519 -142.56 
L 478.590782 -142.56 
L 479.404044 -142.56 
L 480.217307 -142.56 
L 481.03057 -142.56 
L 481.843833 -142.56 
L 482.657096 -142.56 
L 483.470359 -142.56 
L 484.283622 -142.56 
L 485.096885 -142.56 
L 485.910148 -142.56 
L 486.72341 -142.56 
L 487.536673 -142.56 
L 488.349936 -142.56 
L 489.163199 -142.56 
L 489.976462 -142.56 
L 490.789725 -142.56 
L 491.602988 -142.56 
L 492.416251 -142.56 
L 493.229514 -142.56 
L 494.042776 -142.56 
L 494.856039 -142.56 
L 495.669302 -142.56 
L 496.482565 -142.56 
L 497.295828 -142.56 
L 498.109091 -142.56 
L 498.109091 -243.36 
L 498.109091 -243.36 
L 497.295828 -242.955992 
L 496.482565 -242.551984 
L 495.669302 -242.147976 
L 494.856039 -241.743968 
L 494.042776 -241.33996 
L 493.229514 -240.935952 
L 492.416251 -240.531944 
L 491.602988 -240.127936 
L 490.789725 -239.723928 
L 489.976462 -239.31992 
L 489.163199 -238.915912 
L 488.349936 -238.511904 
L 487.536673 -238.107896 
L 486.72341 -237.703888 
L 485.910148 -237.29988 
L 485.096885 -236.895872 
L 484.283622 -236.491864 
L 483.470359 -236.087856 
L 482.657096 -235.683848 
L 481.843833 -235.27984 
L 481.03057 -234.875832 
L 480.217307 -234.471824 
L 479.404044 -234.067816 
L 478.590782 -233.663808 
L 477.777519 -233.2598 
L 476.964256 -232.855792 
L 476.150993 -232.451784 
L 475.33773 -232.047776 
L 474.524467 -231.643768 
L 473.711204 -231.23976 
L 472.897941 -230.835752 
L 472.084678 -230.431743 
L 471.271416 -230.027735 
L 470.458153 -229.623727 
L 469.64489 -229.219719 
L 468.831627 -228.815711 
L 468.018364 -228.411703 
L 467.205101 -228.007695 
L 466.391838 -227.603687 
L 465.578575 -227.199679 
L 464.765312 -226.795671 
L 463.95205 -226.391663 
L 463.138787 -225.987655 
L 462.325524 -225.583647 
L 461.512261 -225.179639 
L 460.698998 -224.775631 
L 459.885735 -224.371623 
L 459.072472 -223.967615 
L 458.259209 -223.563607 
L 457.445946 -223.159599 
L 456.632684 -222.755591 
L 455.819421 -222.351583 
L 455.006158 -221.947575 
L 454.192895 -221.543567 
L 453.379632 -221.139559 
L 452.566369 -220.735551 
L 451.753106 -220.331543 
L 450.939843 -219.927535 
L 450.12658 -219.523527 
L 449.313318 -219.119519 
L 448.500055 -218.715511 
L 447.686792 -218.311503 
L 446.873529 -217.907495 
L 446.060266 -217.503487 
L 445.247003 -217.099479 
L 444.43374 -216.695471 
L 443.620477 -216.291463 
L 442.807214 -215.887455 
L 441.993952 -215.483447 
L 441.180689 -215.079439 
L 440.367426 -214.675431 
L 439.554163 -214.271423 
L 438.7409 -213.867415 
L 437.927637 -213.463407 
L 437.114374 -213.059399 
L 436.301111 -212.655391 
L 435.487848 -212.251383 
L 434.674586 -211.847375 
L 433.861323 -211.443367 
L 433.04806 -211.039359 
L 432.234797 -210.635351 
L 431.421534 -210.231343 
L 430.608271 -209.827335 
L 429.795008 -209.423327 
L 428.981745 -209.019319 
L 428.168482 -208.615311 
L 427.35522 -208.211303 
L 426.541957 -207.807295 
L 425.728694 -207.403287 
L 424.915431 -206.999279 
L 424.102168 -206.595271 
L 423.288905 -206.191263 
L 422.475642 -205.787255 
L 421.662379 -205.383246 
L 420.849116 -204.979238 
L 420.035854 -204.57523 
L 419.222591 -204.171222 
L 418.409328 -203.767214 
L 417.596065 -203.363206 
L 416.782802 -202.959198 
L 415.969539 -202.55519 
L 415.156276 -202.151182 
L 414.343013 -201.747174 
L 413.52975 -201.343166 
L 412.716488 -200.939158 
L 411.903225 -200.53515 
L 411.089962 -200.131142 
L 410.276699 -199.727134 
L 409.463436 -199.323126 
L 408.650173 -198.919118 
L 407.83691 -198.51511 
L 407.023647 -198.111102 
L 406.210384 -197.707094 
L 405.397122 -197.303086 
L 404.583859 -196.899078 
L 403.770596 -196.49507 
L 402.957333 -196.091062 
L 402.14407 -195.687054 
L 401.330807 -195.283046 
L 400.517544 -194.879038 
L 399.704281 -194.47503 
L 398.891018 -194.071022 
L 398.077756 -193.667014 
L 397.264493 -193.263006 
L 396.45123 -192.858998 
L 395.637967 -192.45499 
L 394.824704 -192.050982 
L 394.011441 -191.646974 
L 393.198178 -191.242966 
L 392.384915 -190.838958 
L 391.571652 -190.43495 
L 390.75839 -190.030942 
L 389.945127 -189.626934 
L 389.131864 -189.222926 
L 388.318601 -188.818918 
L 387.505338 -188.41491 
L 386.692075 -188.010902 
L 385.878812 -187.606894 
L 385.065549 -187.202886 
L 384.252286 -186.798878 
L 383.439024 -186.39487 
L 382.625761 -185.990862 
L 381.812498 -185.586854 
L 380.999235 -185.182846 
L 380.185972 -184.778838 
L 379.372709 -184.37483 
L 378.559446 -183.970822 
L 377.746183 -183.566814 
L 376.93292 -183.162806 
L 376.119657 -182.758798 
L 375.306395 -182.35479 
L 374.493132 -181.950782 
L 373.679869 -181.546774 
L 372.866606 -181.142766 
L 372.053343 -180.738758 
L 371.24008 -180.334749 
L 370.426817 -179.930741 
L 369.613554 -179.526733 
L 368.800291 -179.122725 
L 367.987029 -178.718717 
L 367.173766 -178.314709 
L 366.360503 -177.910701 
L 365.54724 -177.506693 
L 364.733977 -177.102685 
L 363.920714 -176.698677 
L 363.107451 -176.294669 
L 362.294188 -175.890661 
L 361.480925 -175.486653 
L 360.667663 -175.082645 
L 359.8544 -174.678637 
L 359.041137 -174.274629 
L 358.227874 -173.870621 
L 357.414611 -173.466613 
L 356.601348 -173.062605 
L 355.788085 -172.658597 
L 354.974822 -172.254589 
L 354.161559 -171.850581 
L 353.348297 -171.446573 
L 352.535034 -171.042565 
L 351.721771 -170.638557 
L 350.908508 -170.234549 
L 350.095245 -169.830541 
L 349.281982 -169.426533 
L 348.468719 -169.022525 
L 347.655456 -168.618517 
L 346.842193 -168.214509 
L 346.028931 -167.810501 
L 345.215668 -167.406493 
L 344.402405 -167.002485 
L 343.589142 -166.598477 
L 342.775879 -166.194469 
L 341.962616 -165.790461 
L 341.149353 -165.386453 
L 340.33609 -164.982445 
L 339.522827 -164.578437 
L 338.709565 -164.174429 
L 337.896302 -163.770421 
L 337.083039 -163.366413 
L 336.269776 -162.962405 
L 335.456513 -162.558397 
L 334.64325 -162.154389 
L 333.829987 -161.750381 
L 333.016724 -161.346373 
L 332.203461 -160.942365 
L 331.390199 -160.538357 
L 330.576936 -160.134349 
L 329.763673 -159.730341 
L 328.95041 -159.326333 
L 328.137147 -158.922325 
L 327.323884 -158.518317 
L 326.510621 -158.114309 
L 325.697358 -157.710301 
L 324.884095 -157.306293 
L 324.070833 -156.902285 
L 323.25757 -156.498277 
L 322.444307 -156.094269 
L 321.631044 -155.690261 
L 320.817781 -155.286253 
L 320.004518 -154.882244 
L 319.191255 -154.478236 
L 318.377992 -154.074228 
L 317.564729 -153.67022 
L 316.751467 -153.266212 
L 315.938204 -152.862204 
L 315.124941 -152.458196 
L 314.311678 -152.054188 
L 313.498415 -151.65018 
L 312.685152 -151.246172 
L 311.871889 -150.842164 
L 311.058626 -150.438156 
L 310.245363 -150.034148 
L 309.432101 -149.63014 
L 308.618838 -149.226132 
L 307.805575 -148.822124 
L 306.992312 -148.418116 
L 306.179049 -148.014108 
L 305.365786 -147.6101 
L 304.552523 -147.206092 
L 303.73926 -146.802084 
L 302.925997 -146.398076 
L 302.112735 -145.994068 
L 301.299472 -145.59006 
L 300.486209 -145.186052 
L 299.672946 -144.782044 
L 298.859683 -144.378036 
L 298.04642 -143.974028 
L 297.233157 -143.57002 
L 296.419894 -143.166012 
L 295.606631 -142.762004 
L 294.793369 -142.357996 
L 293.980106 -141.953988 
L 293.166843 -141.54998 
L 292.35358 -141.145972 
L 291.540317 -140.741964 
L 290.727054 -140.337956 
L 289.913791 -139.933948 
L 289.100528 -139.52994 
L 288.287265 -139.125932 
L 287.474003 -138.721924 
L 286.66074 -138.317916 
L 285.847477 -137.913908 
L 285.034214 -137.5099 
L 284.220951 -137.105892 
L 283.407688 -136.701884 
L 282.594425 -136.297876 
L 281.781162 -135.893868 
L 280.967899 -135.48986 
L 280.154637 -135.085852 
L 279.341374 -134.681844 
L 278.528111 -134.277836 
L 277.714848 -133.873828 
L 276.901585 -133.46982 
L 276.088322 -133.065812 
L 275.275059 -132.661804 
L 274.461796 -132.257796 
L 273.648533 -131.853788 
L 272.835271 -131.44978 
L 272.022008 -131.045772 
L 271.208745 -130.641764 
L 270.395482 -130.237756 
L 269.582219 -129.833747 
L 268.768956 -129.429739 
L 267.955693 -129.025731 
L 267.14243 -128.621723 
L 266.329167 -128.217715 
L 265.515905 -127.813707 
L 264.702642 -127.409699 
L 263.889379 -127.005691 
L 263.076116 -126.601683 
L 262.262853 -126.197675 
L 261.44959 -125.793667 
L 260.636327 -125.389659 
L 259.823064 -124.985651 
L 259.009801 -124.581643 
L 258.196539 -124.177635 
L 257.383276 -123.773627 
L 256.570013 -123.369619 
L 255.75675 -122.965611 
L 254.943487 -122.561603 
L 254.130224 -122.157595 
L 253.316961 -121.753587 
L 252.503698 -121.349579 
L 251.690435 -120.945571 
L 250.877173 -120.541563 
L 250.06391 -120.137555 
L 249.250647 -119.733547 
L 248.437384 -119.329539 
L 247.624121 -118.925531 
L 246.810858 -118.521523 
L 245.997595 -118.117515 
L 245.184332 -117.713507 
L 244.371069 -117.309499 
L 243.557807 -116.905491 
L 242.744544 -116.501483 
L 241.931281 -116.097475 
L 241.118018 -115.693467 
L 240.304755 -115.289459 
L 239.491492 -114.885451 
L 238.678229 -114.481443 
L 237.864966 -114.077435 
L 237.051703 -113.673427 
L 236.238441 -113.269419 
L 235.425178 -112.865411 
L 234.611915 -112.461403 
L 233.798652 -112.057395 
L 232.985389 -111.653387 
L 232.172126 -111.249379 
L 231.358863 -110.845371 
L 230.5456 -110.441363 
L 229.732337 -110.037355 
L 228.919075 -109.633347 
L 228.105812 -109.229339 
L 227.292549 -108.825331 
L 226.479286 -108.421323 
L 225.666023 -108.017315 
L 224.85276 -107.613307 
L 224.039497 -107.209299 
L 223.226234 -106.805291 
L 222.412971 -106.401283 
L 221.599709 -105.997275 
L 220.786446 -105.593267 
L 219.973183 -105.189259 
L 219.15992 -104.785251 
L 218.346657 -104.381242 
L 217.533394 -103.977234 
L 216.720131 -103.573226 
L 215.906868 -103.169218 
L 215.093605 -102.76521 
L 214.280343 -102.361202 
L 213.46708 -101.957194 
L 212.653817 -101.553186 
L 211.840554 -101.149178 
L 211.027291 -100.74517 
L 210.214028 -100.341162 
L 209.400765 -99.937154 
L 208.587502 -99.533146 
L 207.774239 -99.129138 
L 206.960976 -98.72513 
L 206.147714 -98.321122 
L 205.334451 -97.917114 
L 204.521188 -97.513106 
L 203.707925 -97.109098 
L 202.894662 -96.70509 
L 202.081399 -96.301082 
L 201.268136 -95.897074 
L 200.454873 -95.493066 
L 199.64161 -95.089058 
L 198.828348 -94.68505 
L 198.015085 -94.281042 
L 197.201822 -93.877034 
L 196.388559 -93.473026 
L 195.575296 -93.069018 
L 194.762033 -92.66501 
L 193.94877 -92.261002 
L 193.135507 -91.856994 
L 192.322244 -91.452986 
L 191.508982 -91.048978 
L 190.695719 -90.64497 
L 189.882456 -90.240962 
L 189.069193 -89.836954 
L 188.25593 -89.432946 
L 187.442667 -89.028938 
L 186.629404 -88.62493 
L 185.816141 -88.220922 
L 185.002878 -87.816914 
L 184.189616 -87.412906 
L 183.376353 -87.008898 
L 182.56309 -86.60489 
L 181.749827 -86.200882 
L 180.936564 -85.796874 
L 180.123301 -85.392866 
L 179.310038 -84.988858 
L 178.496775 -84.58485 
L 177.683512 -84.180842 
L 176.87025 -83.776834 
L 176.056987 -83.372826 
L 175.243724 -82.968818 
L 174.430461 -82.56481 
L 173.617198 -82.160802 
L 172.803935 -81.756794 
L 171.990672 -81.352786 
L 171.177409 -80.948778 
L 170.364146 -80.54477 
L 169.550884 -80.140762 
L 168.737621 -79.736754 
L 167.924358 -79.332745 
L 167.111095 -78.928737 
L 166.297832 -78.524729 
L 165.484569 -78.120721 
L 164.671306 -77.716713 
L 163.858043 -77.312705 
L 163.04478 -76.908697 
L 162.231518 -76.504689 
L 161.418255 -76.100681 
L 160.604992 -75.696673 
L 159.791729 -75.292665 
L 158.978466 -74.888657 
L 158.165203 -74.484649 
L 157.35194 -74.080641 
L 156.538677 -73.676633 
L 155.725414 -73.272625 
L 154.912152 -72.868617 
L 154.098889 -72.464609 
L 153.285626 -72.060601 
L 152.472363 -71.656593 
L 151.6591 -71.252585 
L 150.845837 -70.848577 
L 150.032574 -70.444569 
L 149.219311 -70.040561 
L 148.406048 -69.636553 
L 147.592786 -69.232545 
L 146.779523 -68.828537 
L 145.96626 -68.424529 
L 145.152997 -68.020521 
L 144.339734 -67.616513 
L 143.526471 -67.212505 
L 142.713208 -66.808497 
L 141.899945 -66.404489 
L 141.086682 -66.000481 
L 140.27342 -65.596473 
L 139.460157 -65.192465 
L 138.646894 -64.788457 
L 137.833631 -64.384449 
L 137.020368 -63.980441 
L 136.207105 -63.576433 
L 135.393842 -63.172425 
L 134.580579 -62.768417 
L 133.767316 -62.364409 
L 132.954054 -61.960401 
L 132.140791 -61.556393 
L 131.327528 -61.152385 
L 130.514265 -60.748377 
L 129.701002 -60.344369 
L 128.887739 -59.940361 
L 128.074476 -59.536353 
L 127.261213 -59.132345 
L 126.44795 -58.728337 
L 125.634688 -58.324329 
L 124.821425 -57.920321 
L 124.008162 -57.516313 
L 123.194899 -57.112305 
L 122.381636 -56.708297 
L 121.568373 -56.304289 
L 120.75511 -55.900281 
L 119.941847 -55.496273 
L 119.128584 -55.092265 
L 118.315322 -54.688257 
L 117.502059 -54.284248 
L 116.688796 -53.88024 
L 115.875533 -53.476232 
L 115.06227 -53.072224 
L 114.249007 -52.668216 
L 113.435744 -52.264208 
L 112.622481 -51.8602 
L 111.809218 -51.456192 
L 110.995956 -51.052184 
L 110.182693 -50.648176 
L 109.36943 -50.244168 
L 108.556167 -49.84016 
L 107.742904 -49.436152 
L 106.929641 -49.032144 
L 106.116378 -48.628136 
L 105.303115 -48.224128 
L 104.489852 -47.82012 
L 103.67659 -47.416112 
L 102.863327 -47.012104 
L 102.050064 -46.608096 
L 101.236801 -46.204088 
L 100.423538 -45.80008 
L 99.610275 -45.396072 
L 98.797012 -44.992064 
L 97.983749 -44.588056 
L 97.170486 -44.184048 
L 96.357224 -43.78004 
L 95.543961 -43.376032 
L 94.730698 -42.972024 
L 93.917435 -42.568016 
L 93.104172 -42.164008 
L 92.290909 -41.76 
z
" style="stroke: #800080; stroke-opacity: 0.2"/>
    </defs>
    <g clip-path="url(#peb58b02601)">
     <use xlink:href="#m2d9ca8826c" x="0" y="288" style="fill: #800080; fill-opacity: 0.2; stroke: #800080; stroke-opacity: 0.2"/>
    </g>
   </g>
   <g id="matplotlib.axis_1">
    <g id="xtick_1">
     <g id="line2d_1">
      <defs>
       <path id="m7acd689c4e" d="M 0 0 
L 0 3.5 
" style="stroke: #000000; stroke-width: 0.8"/>
      </defs>
      <g>
       <use xlink:href="#m7acd689c4e" x="92.290909" y="256.32" style="stroke: #000000; stroke-width: 0.8"/>
      </g>
     </g>
     <g id="text_1">
      <!-- 0 -->
      <g transform="translate(89.109659 270.918437) scale(0.1 -0.1)">
       <defs>
        <path id="DejaVuSans-30" d="M 2034 4250 
Q 1547 4250 1301 3770 
Q 1056 3291 1056 2328 
Q 1056 1369 1301 889 
Q 1547 409 2034 409 
Q 2525 409 2770 889 
Q 3016 1369 3016 2328 
Q 3016 3291 2770 3770 
Q 2525 4250 2034 4250 
z
M 2034 4750 
Q 2819 4750 3233 4129 
Q 3647 3509 3647 2328 
Q 3647 1150 3233 529 
Q 2819 -91 2034 -91 
Q 1250 -91 836 529 
Q 422 1150 422 2328 
Q 422 3509 836 4129 
Q 1250 4750 2034 4750 
z
" transform="scale(0.015625)"/>
       </defs>
       <use xlink:href="#DejaVuSans-30"/>
      </g>
     </g>
    </g>
    <g id="xtick_2">
     <g id="line2d_2">
      <g>
       <use xlink:href="#m7acd689c4e" x="173.454545" y="256.32" style="stroke: #000000; stroke-width: 0.8"/>
      </g>
     </g>
     <g id="text_2">
      <!-- 2 -->
      <g transform="translate(170.273295 270.918437) scale(0.1 -0.1)">
       <defs>
        <path id="DejaVuSans-32" d="M 1228 531 
L 3431 531 
L 3431 0 
L 469 0 
L 469 531 
Q 828 903 1448 1529 
Q 2069 2156 2228 2338 
Q 2531 2678 2651 2914 
Q 2772 3150 2772 3378 
Q 2772 3750 2511 3984 
Q 2250 4219 1831 4219 
Q 1534 4219 1204 4116 
Q 875 4013 500 3803 
L 500 4441 
Q 881 4594 1212 4672 
Q 1544 4750 1819 4750 
Q 2544 4750 2975 4387 
Q 3406 4025 3406 3419 
Q 3406 3131 3298 2873 
Q 3191 2616 2906 2266 
Q 2828 2175 2409 1742 
Q 1991 1309 1228 531 
z
" transform="scale(0.015625)"/>
       </defs>
       <use xlink:href="#DejaVuSans-32"/>
      </g>
     </g>
    </g>
    <g id="xtick_3">
     <g id="line2d_3">
      <g>
       <use xlink:href="#m7acd689c4e" x="254.618182" y="256.32" style="stroke: #000000; stroke-width: 0.8"/>
      </g>
     </g>
     <g id="text_3">
      <!-- 4 -->
      <g transform="translate(251.436932 270.918437) scale(0.1 -0.1)">
       <defs>
        <path id="DejaVuSans-34" d="M 2419 4116 
L 825 1625 
L 2419 1625 
L 2419 4116 
z
M 2253 4666 
L 3047 4666 
L 3047 1625 
L 3713 1625 
L 3713 1100 
L 3047 1100 
L 3047 0 
L 2419 0 
L 2419 1100 
L 313 1100 
L 313 1709 
L 2253 4666 
z
" transform="scale(0.015625)"/>
       </defs>
       <use xlink:href="#DejaVuSans-34"/>
      </g>
     </g>
    </g>
    <g id="xtick_4">
     <g id="line2d_4">
      <g>
       <use xlink:href="#m7acd689c4e" x="335.781818" y="256.32" style="stroke: #000000; stroke-width: 0.8"/>
      </g>
     </g>
     <g id="text_4">
      <!-- 6 -->
      <g transform="translate(332.600568 270.918437) scale(0.1 -0.1)">
       <defs>
        <path id="DejaVuSans-36" d="M 2113 2584 
Q 1688 2584 1439 2293 
Q 1191 2003 1191 1497 
Q 1191 994 1439 701 
Q 1688 409 2113 409 
Q 2538 409 2786 701 
Q 3034 994 3034 1497 
Q 3034 2003 2786 2293 
Q 2538 2584 2113 2584 
z
M 3366 4563 
L 3366 3988 
Q 3128 4100 2886 4159 
Q 2644 4219 2406 4219 
Q 1781 4219 1451 3797 
Q 1122 3375 1075 2522 
Q 1259 2794 1537 2939 
Q 1816 3084 2150 3084 
Q 2853 3084 3261 2657 
Q 3669 2231 3669 1497 
Q 3669 778 3244 343 
Q 2819 -91 2113 -91 
Q 1303 -91 875 529 
Q 447 1150 447 2328 
Q 447 3434 972 4092 
Q 1497 4750 2381 4750 
Q 2619 4750 2861 4703 
Q 3103 4656 3366 4563 
z
" transform="scale(0.015625)"/>
       </defs>
       <use xlink:href="#DejaVuSans-36"/>
      </g>
     </g>
    </g>
    <g id="xtick_5">
     <g id="line2d_5">
      <g>
       <use xlink:href="#m7acd689c4e" x="416.945455" y="256.32" style="stroke: #000000; stroke-width: 0.8"/>
      </g>
     </g>
     <g id="text_5">
      <!-- 8 -->
      <g transform="translate(413.764205 270.918437) scale(0.1 -0.1)">
       <defs>
        <path id="DejaVuSans-38" d="M 2034 2216 
Q 1584 2216 1326 1975 
Q 1069 1734 1069 1313 
Q 1069 891 1326 650 
Q 1584 409 2034 409 
Q 2484 409 2743 651 
Q 3003 894 3003 1313 
Q 3003 1734 2745 1975 
Q 2488 2216 2034 2216 
z
M 1403 2484 
Q 997 2584 770 2862 
Q 544 3141 544 3541 
Q 544 4100 942 4425 
Q 1341 4750 2034 4750 
Q 2731 4750 3128 4425 
Q 3525 4100 3525 3541 
Q 3525 3141 3298 2862 
Q 3072 2584 2669 2484 
Q 3125 2378 3379 2068 
Q 3634 1759 3634 1313 
Q 3634 634 3220 271 
Q 2806 -91 2034 -91 
Q 1263 -91 848 271 
Q 434 634 434 1313 
Q 434 1759 690 2068 
Q 947 2378 1403 2484 
z
M 1172 3481 
Q 1172 3119 1398 2916 
Q 1625 2713 2034 2713 
Q 2441 2713 2670 2916 
Q 2900 3119 2900 3481 
Q 2900 3844 2670 4047 
Q 2441 4250 2034 4250 
Q 1625 4250 1398 4047 
Q 1172 3844 1172 3481 
z
" transform="scale(0.015625)"/>
       </defs>
       <use xlink:href="#DejaVuSans-38"/>
      </g>
     </g>
    </g>
    <g id="xtick_6">
     <g id="line2d_6">
      <g>
       <use xlink:href="#m7acd689c4e" x="498.109091" y="256.32" style="stroke: #000000; stroke-width: 0.8"/>
      </g>
     </g>
     <g id="text_6">
      <!-- 10 -->
      <g transform="translate(491.746591 270.918437) scale(0.1 -0.1)">
       <defs>
        <path id="DejaVuSans-31" d="M 794 531 
L 1825 531 
L 1825 4091 
L 703 3866 
L 703 4441 
L 1819 4666 
L 2450 4666 
L 2450 531 
L 3481 531 
L 3481 0 
L 794 0 
L 794 531 
z
" transform="scale(0.015625)"/>
       </defs>
       <use xlink:href="#DejaVuSans-31"/>
       <use xlink:href="#DejaVuSans-30" x="63.623047"/>
      </g>
     </g>
    </g>
   </g>
   <g id="matplotlib.axis_2">
    <g id="ytick_1">
     <g id="line2d_7">
      <defs>
       <path id="m143fe78f13" d="M 0 0 
L -3.5 0 
" style="stroke: #000000; stroke-width: 0.8"/>
      </defs>
      <g>
       <use xlink:href="#m143fe78f13" x="72" y="246.24" style="stroke: #000000; stroke-width: 0.8"/>
      </g>
     </g>
     <g id="text_7">
      <!-- 20 -->
      <g transform="translate(43.895313 250.039219) scale(0.1 -0.1)">
       <defs>
        <path id="DejaVuSans-2212" d="M 678 2272 
L 4684 2272 
L 4684 1741 
L 678 1741 
L 678 2272 
z
" transform="scale(0.015625)"/>
       </defs>
       <use xlink:href="#DejaVuSans-2212"/>
       <use xlink:href="#DejaVuSans-32" x="83.789062"/>
       <use xlink:href="#DejaVuSans-30" x="147.412109"/>
      </g>
     </g>
    </g>
    <g id="ytick_2">
     <g id="line2d_8">
      <g>
       <use xlink:href="#m143fe78f13" x="72" y="221.04" style="stroke: #000000; stroke-width: 0.8"/>
      </g>
     </g>
     <g id="text_8">
      <!-- 15 -->
      <g transform="translate(43.895313 224.839219) scale(0.1 -0.1)">
       <defs>
        <path id="DejaVuSans-35" d="M 691 4666 
L 3169 4666 
L 3169 4134 
L 1269 4134 
L 1269 2991 
Q 1406 3038 1543 3061 
Q 1681 3084 1819 3084 
Q 2600 3084 3056 2656 
Q 3513 2228 3513 1497 
Q 3513 744 3044 326 
Q 2575 -91 1722 -91 
Q 1428 -91 1123 -41 
Q 819 9 494 109 
L 494 744 
Q 775 591 1075 516 
Q 1375 441 1709 441 
Q 2250 441 2565 725 
Q 2881 1009 2881 1497 
Q 2881 1984 2565 2268 
Q 2250 2553 1709 2553 
Q 1456 2553 1204 2497 
Q 953 2441 691 2322 
L 691 4666 
z
" transform="scale(0.015625)"/>
       </defs>
       <use xlink:href="#DejaVuSans-2212"/>
       <use xlink:href="#DejaVuSans-31" x="83.789062"/>
       <use xlink:href="#DejaVuSans-35" x="147.412109"/>
      </g>
     </g>
    </g>
    <g id="ytick_3">
     <g id="line2d_9">
      <g>
       <use xlink:href="#m143fe78f13" x="72" y="195.84" style="stroke: #000000; stroke-width: 0.8"/>
      </g>
     </g>
     <g id="text_9">
      <!-- 10 -->
      <g transform="translate(43.895313 199.639219) scale(0.1 -0.1)">
       <use xlink:href="#DejaVuSans-2212"/>
       <use xlink:href="#DejaVuSans-31" x="83.789062"/>
       <use xlink:href="#DejaVuSans-30" x="147.412109"/>
      </g>
     </g>
    </g>
    <g id="ytick_4">
     <g id="line2d_10">
      <g>
       <use xlink:href="#m143fe78f13" x="72" y="170.64" style="stroke: #000000; stroke-width: 0.8"/>
      </g>
     </g>
     <g id="text_10">
      <!-- 5 -->
      <g transform="translate(50.257812 174.439219) scale(0.1 -0.1)">
       <use xlink:href="#DejaVuSans-2212"/>
       <use xlink:href="#DejaVuSans-35" x="83.789062"/>
      </g>
     </g>
    </g>
    <g id="ytick_5">
     <g id="line2d_11">
      <g>
       <use xlink:href="#m143fe78f13" x="72" y="145.44" style="stroke: #000000; stroke-width: 0.8"/>
      </g>
     </g>
     <g id="text_11">
      <!-- 0 -->
      <g transform="translate(58.6375 149.239219) scale(0.1 -0.1)">
       <use xlink:href="#DejaVuSans-30"/>
      </g>
     </g>
    </g>
    <g id="ytick_6">
     <g id="line2d_12">
      <g>
       <use xlink:href="#m143fe78f13" x="72" y="120.24" style="stroke: #000000; stroke-width: 0.8"/>
      </g>
     </g>
     <g id="text_12">
      <!-- 5 -->
      <g transform="translate(58.6375 124.039219) scale(0.1 -0.1)">
       <use xlink:href="#DejaVuSans-35"/>
      </g>
     </g>
    </g>
    <g id="ytick_7">
     <g id="line2d_13">
      <g>
       <use xlink:href="#m143fe78f13" x="72" y="95.04" style="stroke: #000000; stroke-width: 0.8"/>
      </g>
     </g>
     <g id="text_13">
      <!-- 10 -->
      <g transform="translate(52.275 98.839219) scale(0.1 -0.1)">
       <use xlink:href="#DejaVuSans-31"/>
       <use xlink:href="#DejaVuSans-30" x="63.623047"/>
      </g>
     </g>
    </g>
    <g id="ytick_8">
     <g id="line2d_14">
      <g>
       <use xlink:href="#m143fe78f13" x="72" y="69.84" style="stroke: #000000; stroke-width: 0.8"/>
      </g>
     </g>
     <g id="text_14">
      <!-- 15 -->
      <g transform="translate(52.275 73.639219) scale(0.1 -0.1)">
       <use xlink:href="#DejaVuSans-31"/>
       <use xlink:href="#DejaVuSans-35" x="63.623047"/>
      </g>
     </g>
    </g>
    <g id="ytick_9">
     <g id="line2d_15">
      <g>
       <use xlink:href="#m143fe78f13" x="72" y="44.64" style="stroke: #000000; stroke-width: 0.8"/>
      </g>
     </g>
     <g id="text_15">
      <!-- 20 -->
      <g transform="translate(52.275 48.439219) scale(0.1 -0.1)">
       <use xlink:href="#DejaVuSans-32"/>
       <use xlink:href="#DejaVuSans-30" x="63.623047"/>
      </g>
     </g>
    </g>
   </g>
   <g id="line2d_16">
    <path d="M 92.290909 145.439624 
L 145.152997 145.331632 
L 158.978466 145.07963 
L 167.924358 144.70285 
L 175.243724 144.163105 
L 180.936564 143.525898 
L 185.816141 142.774018 
L 190.695719 141.780089 
L 194.762033 140.72641 
L 198.828348 139.430024 
L 202.081399 138.193138 
L 205.334451 136.757663 
L 208.587502 135.104472 
L 211.840554 133.215305 
L 215.093605 131.073441 
L 218.346657 128.664447 
L 221.599709 125.976976 
L 224.85276 123.003602 
L 228.105812 119.741645 
L 231.358863 116.193973 
L 235.425178 111.372169 
L 239.491492 106.151838 
L 243.557807 100.584202 
L 248.437384 93.544328 
L 257.383276 80.142526 
L 263.889379 70.589036 
L 267.955693 64.977772 
L 271.208745 60.801431 
L 274.461796 56.978574 
L 276.901585 54.383323 
L 279.341374 52.050096 
L 281.781162 50.002661 
L 284.220951 48.262217 
L 286.66074 46.847037 
L 289.100528 45.772144 
L 290.727054 45.250431 
L 292.35358 44.887646 
L 293.980106 44.685532 
L 295.606631 44.64506 
L 297.233157 44.766426 
L 298.859683 45.049046 
L 300.486209 45.49156 
L 302.925997 46.450287 
L 305.365786 47.753538 
L 307.805575 49.387437 
L 310.245363 51.33476 
L 312.685152 53.575245 
L 315.124941 56.085937 
L 318.377992 59.809922 
L 321.631044 63.904312 
L 325.697358 69.437976 
L 330.576936 76.504588 
L 347.655456 101.722427 
L 351.721771 107.225595 
L 355.788085 112.369726 
L 359.8544 117.107291 
L 363.107451 120.584134 
L 366.360503 123.773984 
L 369.613554 126.675432 
L 372.866606 129.29242 
L 376.119657 131.633433 
L 379.372709 133.710667 
L 382.625761 135.5392 
L 385.878812 137.136205 
L 389.131864 138.520219 
L 393.198178 139.980063 
L 397.264493 141.174966 
L 401.330807 142.141647 
L 406.210384 143.048938 
L 411.089962 143.731536 
L 416.782802 144.306677 
L 423.288905 144.747894 
L 431.421534 145.07963 
L 442.807214 145.304901 
L 461.512261 145.417279 
L 498.109091 145.439624 
L 498.109091 145.439624 
" clip-path="url(#peb58b02601)" style="fill: none; stroke: #008000; stroke-width: 1.5; stroke-linecap: square"/>
   </g>
   <g id="line2d_17">
    <path d="M 92.290909 246.24 
L 498.109091 44.64 
L 498.109091 44.64 
" clip-path="url(#peb58b02601)" style="fill: none; stroke: #800080; stroke-width: 1.5; stroke-linecap: square"/>
   </g>
   <g id="patch_3">
    <path d="M 72 256.32 
L 72 34.56 
" style="fill: none; stroke: #000000; stroke-width: 0.8; stroke-linejoin: miter; stroke-linecap: square"/>
   </g>
   <g id="patch_4">
    <path d="M 518.4 256.32 
L 518.4 34.56 
" style="fill: none; stroke: #000000; stroke-width: 0.8; stroke-linejoin: miter; stroke-linecap: square"/>
   </g>
   <g id="patch_5">
    <path d="M 72 256.32 
L 518.4 256.32 
" style="fill: none; stroke: #000000; stroke-width: 0.8; stroke-linejoin: miter; stroke-linecap: square"/>
   </g>
   <g id="patch_6">
    <path d="M 72 34.56 
L 518.4 34.56 
" style="fill: none; stroke: #000000; stroke-width: 0.8; stroke-linejoin: miter; stroke-linecap: square"/>
   </g>
  </g>
 </g>
 <defs>
  <clipPath id="peb58b02601">
   <rect x="72" y="34.56" width="446.4" height="221.76"/>
  </clipPath>
 </defs>
</svg>
