<?xml version="1.0" encoding="utf-8" standalone="no"?>
<!DOCTYPE svg PUBLIC "-//W3C//DTD SVG 1.1//EN"
  "http://www.w3.org/Graphics/SVG/1.1/DTD/svg11.dtd">
<svg xmlns:xlink="http://www.w3.org/1999/xlink" width="576pt" height="432pt" viewBox="0 0 576 432" xmlns="http://www.w3.org/2000/svg" version="1.1">
 <metadata>
  <rdf:RDF xmlns:dc="http://purl.org/dc/elements/1.1/" xmlns:cc="http://creativecommons.org/ns#" xmlns:rdf="http://www.w3.org/1999/02/22-rdf-syntax-ns#">
   <cc:Work>
    <dc:type rdf:resource="http://purl.org/dc/dcmitype/StillImage"/>
    <dc:date>2025-04-27T08:30:46.173502</dc:date>
    <dc:format>image/svg+xml</dc:format>
    <dc:creator>
     <cc:Agent>
      <dc:title>Matplotlib v3.9.2, https://matplotlib.org/</dc:title>
     </cc:Agent>
    </dc:creator>
   </cc:Work>
  </rdf:RDF>
 </metadata>
 <defs>
  <style type="text/css">*{stroke-linejoin: round; stroke-linecap: butt}</style>
 </defs>
 <g id="figure_1">
  <g id="patch_1">
   <path d="M 0 432 
L 576 432 
L 576 0 
L 0 0 
z
" style="fill: #ffffff"/>
  </g>
  <g id="axes_1">
   <g id="patch_2">
    <path d="M 72 384.48 
L 518.4 384.48 
L 518.4 51.84 
L 72 51.84 
z
" style="fill: #ffffff"/>
   </g>
   <g id="matplotlib.axis_1">
    <g id="xtick_1">
     <g id="line2d_1">
      <defs>
       <path id="m8071ba744a" d="M 0 0 
L 0 3.5 
" style="stroke: #000000; stroke-width: 0.8"/>
      </defs>
      <g>
       <use xlink:href="#m8071ba744a" x="92.290909" y="384.48" style="stroke: #000000; stroke-width: 0.8"/>
      </g>
     </g>
     <g id="text_1">
      <!-- 0 -->
      <g transform="translate(89.109659 399.078438) scale(0.1 -0.1)">
       <defs>
        <path id="DejaVuSans-30" d="M 2034 4250 
Q 1547 4250 1301 3770 
Q 1056 3291 1056 2328 
Q 1056 1369 1301 889 
Q 1547 409 2034 409 
Q 2525 409 2770 889 
Q 3016 1369 3016 2328 
Q 3016 3291 2770 3770 
Q 2525 4250 2034 4250 
z
M 2034 4750 
Q 2819 4750 3233 4129 
Q 3647 3509 3647 2328 
Q 3647 1150 3233 529 
Q 2819 -91 2034 -91 
Q 1250 -91 836 529 
Q 422 1150 422 2328 
Q 422 3509 836 4129 
Q 1250 4750 2034 4750 
z
" transform="scale(0.015625)"/>
       </defs>
       <use xlink:href="#DejaVuSans-30"/>
      </g>
     </g>
    </g>
    <g id="xtick_2">
     <g id="line2d_2">
      <g>
       <use xlink:href="#m8071ba744a" x="173.454545" y="384.48" style="stroke: #000000; stroke-width: 0.8"/>
      </g>
     </g>
     <g id="text_2">
      <!-- 2 -->
      <g transform="translate(170.273295 399.078438) scale(0.1 -0.1)">
       <defs>
        <path id="DejaVuSans-32" d="M 1228 531 
L 3431 531 
L 3431 0 
L 469 0 
L 469 531 
Q 828 903 1448 1529 
Q 2069 2156 2228 2338 
Q 2531 2678 2651 2914 
Q 2772 3150 2772 3378 
Q 2772 3750 2511 3984 
Q 2250 4219 1831 4219 
Q 1534 4219 1204 4116 
Q 875 4013 500 3803 
L 500 4441 
Q 881 4594 1212 4672 
Q 1544 4750 1819 4750 
Q 2544 4750 2975 4387 
Q 3406 4025 3406 3419 
Q 3406 3131 3298 2873 
Q 3191 2616 2906 2266 
Q 2828 2175 2409 1742 
Q 1991 1309 1228 531 
z
" transform="scale(0.015625)"/>
       </defs>
       <use xlink:href="#DejaVuSans-32"/>
      </g>
     </g>
    </g>
    <g id="xtick_3">
     <g id="line2d_3">
      <g>
       <use xlink:href="#m8071ba744a" x="254.618182" y="384.48" style="stroke: #000000; stroke-width: 0.8"/>
      </g>
     </g>
     <g id="text_3">
      <!-- 4 -->
      <g transform="translate(251.436932 399.078438) scale(0.1 -0.1)">
       <defs>
        <path id="DejaVuSans-34" d="M 2419 4116 
L 825 1625 
L 2419 1625 
L 2419 4116 
z
M 2253 4666 
L 3047 4666 
L 3047 1625 
L 3713 1625 
L 3713 1100 
L 3047 1100 
L 3047 0 
L 2419 0 
L 2419 1100 
L 313 1100 
L 313 1709 
L 2253 4666 
z
" transform="scale(0.015625)"/>
       </defs>
       <use xlink:href="#DejaVuSans-34"/>
      </g>
     </g>
    </g>
    <g id="xtick_4">
     <g id="line2d_4">
      <g>
       <use xlink:href="#m8071ba744a" x="335.781818" y="384.48" style="stroke: #000000; stroke-width: 0.8"/>
      </g>
     </g>
     <g id="text_4">
      <!-- 6 -->
      <g transform="translate(332.600568 399.078438) scale(0.1 -0.1)">
       <defs>
        <path id="DejaVuSans-36" d="M 2113 2584 
Q 1688 2584 1439 2293 
Q 1191 2003 1191 1497 
Q 1191 994 1439 701 
Q 1688 409 2113 409 
Q 2538 409 2786 701 
Q 3034 994 3034 1497 
Q 3034 2003 2786 2293 
Q 2538 2584 2113 2584 
z
M 3366 4563 
L 3366 3988 
Q 3128 4100 2886 4159 
Q 2644 4219 2406 4219 
Q 1781 4219 1451 3797 
Q 1122 3375 1075 2522 
Q 1259 2794 1537 2939 
Q 1816 3084 2150 3084 
Q 2853 3084 3261 2657 
Q 3669 2231 3669 1497 
Q 3669 778 3244 343 
Q 2819 -91 2113 -91 
Q 1303 -91 875 529 
Q 447 1150 447 2328 
Q 447 3434 972 4092 
Q 1497 4750 2381 4750 
Q 2619 4750 2861 4703 
Q 3103 4656 3366 4563 
z
" transform="scale(0.015625)"/>
       </defs>
       <use xlink:href="#DejaVuSans-36"/>
      </g>
     </g>
    </g>
    <g id="xtick_5">
     <g id="line2d_5">
      <g>
       <use xlink:href="#m8071ba744a" x="416.945455" y="384.48" style="stroke: #000000; stroke-width: 0.8"/>
      </g>
     </g>
     <g id="text_5">
      <!-- 8 -->
      <g transform="translate(413.764205 399.078438) scale(0.1 -0.1)">
       <defs>
        <path id="DejaVuSans-38" d="M 2034 2216 
Q 1584 2216 1326 1975 
Q 1069 1734 1069 1313 
Q 1069 891 1326 650 
Q 1584 409 2034 409 
Q 2484 409 2743 651 
Q 3003 894 3003 1313 
Q 3003 1734 2745 1975 
Q 2488 2216 2034 2216 
z
M 1403 2484 
Q 997 2584 770 2862 
Q 544 3141 544 3541 
Q 544 4100 942 4425 
Q 1341 4750 2034 4750 
Q 2731 4750 3128 4425 
Q 3525 4100 3525 3541 
Q 3525 3141 3298 2862 
Q 3072 2584 2669 2484 
Q 3125 2378 3379 2068 
Q 3634 1759 3634 1313 
Q 3634 634 3220 271 
Q 2806 -91 2034 -91 
Q 1263 -91 848 271 
Q 434 634 434 1313 
Q 434 1759 690 2068 
Q 947 2378 1403 2484 
z
M 1172 3481 
Q 1172 3119 1398 2916 
Q 1625 2713 2034 2713 
Q 2441 2713 2670 2916 
Q 2900 3119 2900 3481 
Q 2900 3844 2670 4047 
Q 2441 4250 2034 4250 
Q 1625 4250 1398 4047 
Q 1172 3844 1172 3481 
z
" transform="scale(0.015625)"/>
       </defs>
       <use xlink:href="#DejaVuSans-38"/>
      </g>
     </g>
    </g>
    <g id="xtick_6">
     <g id="line2d_6">
      <g>
       <use xlink:href="#m8071ba744a" x="498.109091" y="384.48" style="stroke: #000000; stroke-width: 0.8"/>
      </g>
     </g>
     <g id="text_6">
      <!-- 10 -->
      <g transform="translate(491.746591 399.078438) scale(0.1 -0.1)">
       <defs>
        <path id="DejaVuSans-31" d="M 794 531 
L 1825 531 
L 1825 4091 
L 703 3866 
L 703 4441 
L 1819 4666 
L 2450 4666 
L 2450 531 
L 3481 531 
L 3481 0 
L 794 0 
L 794 531 
z
" transform="scale(0.015625)"/>
       </defs>
       <use xlink:href="#DejaVuSans-31"/>
       <use xlink:href="#DejaVuSans-30" x="63.623047"/>
      </g>
     </g>
    </g>
    <g id="text_7">
     <!-- time -->
     <g transform="translate(283.903906 412.756563) scale(0.1 -0.1)">
      <defs>
       <path id="DejaVuSans-74" d="M 1172 4494 
L 1172 3500 
L 2356 3500 
L 2356 3053 
L 1172 3053 
L 1172 1153 
Q 1172 725 1289 603 
Q 1406 481 1766 481 
L 2356 481 
L 2356 0 
L 1766 0 
Q 1100 0 847 248 
Q 594 497 594 1153 
L 594 3053 
L 172 3053 
L 172 3500 
L 594 3500 
L 594 4494 
L 1172 4494 
z
" transform="scale(0.015625)"/>
       <path id="DejaVuSans-69" d="M 603 3500 
L 1178 3500 
L 1178 0 
L 603 0 
L 603 3500 
z
M 603 4863 
L 1178 4863 
L 1178 4134 
L 603 4134 
L 603 4863 
z
" transform="scale(0.015625)"/>
       <path id="DejaVuSans-6d" d="M 3328 2828 
Q 3544 3216 3844 3400 
Q 4144 3584 4550 3584 
Q 5097 3584 5394 3201 
Q 5691 2819 5691 2113 
L 5691 0 
L 5113 0 
L 5113 2094 
Q 5113 2597 4934 2840 
Q 4756 3084 4391 3084 
Q 3944 3084 3684 2787 
Q 3425 2491 3425 1978 
L 3425 0 
L 2847 0 
L 2847 2094 
Q 2847 2600 2669 2842 
Q 2491 3084 2119 3084 
Q 1678 3084 1418 2786 
Q 1159 2488 1159 1978 
L 1159 0 
L 581 0 
L 581 3500 
L 1159 3500 
L 1159 2956 
Q 1356 3278 1631 3431 
Q 1906 3584 2284 3584 
Q 2666 3584 2933 3390 
Q 3200 3197 3328 2828 
z
" transform="scale(0.015625)"/>
       <path id="DejaVuSans-65" d="M 3597 1894 
L 3597 1613 
L 953 1613 
Q 991 1019 1311 708 
Q 1631 397 2203 397 
Q 2534 397 2845 478 
Q 3156 559 3463 722 
L 3463 178 
Q 3153 47 2828 -22 
Q 2503 -91 2169 -91 
Q 1331 -91 842 396 
Q 353 884 353 1716 
Q 353 2575 817 3079 
Q 1281 3584 2069 3584 
Q 2775 3584 3186 3129 
Q 3597 2675 3597 1894 
z
M 3022 2063 
Q 3016 2534 2758 2815 
Q 2500 3097 2075 3097 
Q 1594 3097 1305 2825 
Q 1016 2553 972 2059 
L 3022 2063 
z
" transform="scale(0.015625)"/>
      </defs>
      <use xlink:href="#DejaVuSans-74"/>
      <use xlink:href="#DejaVuSans-69" x="39.208984"/>
      <use xlink:href="#DejaVuSans-6d" x="66.992188"/>
      <use xlink:href="#DejaVuSans-65" x="164.404297"/>
     </g>
    </g>
   </g>
   <g id="matplotlib.axis_2">
    <g id="ytick_1">
     <g id="line2d_7">
      <defs>
       <path id="m3f217fef13" d="M 0 0 
L -3.5 0 
" style="stroke: #000000; stroke-width: 0.8"/>
      </defs>
      <g>
       <use xlink:href="#m3f217fef13" x="72" y="369.36" style="stroke: #000000; stroke-width: 0.8"/>
      </g>
     </g>
     <g id="text_8">
      <!-- 0.0 -->
      <g transform="translate(49.096875 373.159219) scale(0.1 -0.1)">
       <defs>
        <path id="DejaVuSans-2e" d="M 684 794 
L 1344 794 
L 1344 0 
L 684 0 
L 684 794 
z
" transform="scale(0.015625)"/>
       </defs>
       <use xlink:href="#DejaVuSans-30"/>
       <use xlink:href="#DejaVuSans-2e" x="63.623047"/>
       <use xlink:href="#DejaVuSans-30" x="95.410156"/>
      </g>
     </g>
    </g>
    <g id="ytick_2">
     <g id="line2d_8">
      <g>
       <use xlink:href="#m3f217fef13" x="72" y="308.879998" style="stroke: #000000; stroke-width: 0.8"/>
      </g>
     </g>
     <g id="text_9">
      <!-- 0.2 -->
      <g transform="translate(49.096875 312.679217) scale(0.1 -0.1)">
       <use xlink:href="#DejaVuSans-30"/>
       <use xlink:href="#DejaVuSans-2e" x="63.623047"/>
       <use xlink:href="#DejaVuSans-32" x="95.410156"/>
      </g>
     </g>
    </g>
    <g id="ytick_3">
     <g id="line2d_9">
      <g>
       <use xlink:href="#m3f217fef13" x="72" y="248.399997" style="stroke: #000000; stroke-width: 0.8"/>
      </g>
     </g>
     <g id="text_10">
      <!-- 0.4 -->
      <g transform="translate(49.096875 252.199216) scale(0.1 -0.1)">
       <use xlink:href="#DejaVuSans-30"/>
       <use xlink:href="#DejaVuSans-2e" x="63.623047"/>
       <use xlink:href="#DejaVuSans-34" x="95.410156"/>
      </g>
     </g>
    </g>
    <g id="ytick_4">
     <g id="line2d_10">
      <g>
       <use xlink:href="#m3f217fef13" x="72" y="187.919995" style="stroke: #000000; stroke-width: 0.8"/>
      </g>
     </g>
     <g id="text_11">
      <!-- 0.6 -->
      <g transform="translate(49.096875 191.719214) scale(0.1 -0.1)">
       <use xlink:href="#DejaVuSans-30"/>
       <use xlink:href="#DejaVuSans-2e" x="63.623047"/>
       <use xlink:href="#DejaVuSans-36" x="95.410156"/>
      </g>
     </g>
    </g>
    <g id="ytick_5">
     <g id="line2d_11">
      <g>
       <use xlink:href="#m3f217fef13" x="72" y="127.439994" style="stroke: #000000; stroke-width: 0.8"/>
      </g>
     </g>
     <g id="text_12">
      <!-- 0.8 -->
      <g transform="translate(49.096875 131.239213) scale(0.1 -0.1)">
       <use xlink:href="#DejaVuSans-30"/>
       <use xlink:href="#DejaVuSans-2e" x="63.623047"/>
       <use xlink:href="#DejaVuSans-38" x="95.410156"/>
      </g>
     </g>
    </g>
    <g id="ytick_6">
     <g id="line2d_12">
      <g>
       <use xlink:href="#m3f217fef13" x="72" y="66.959992" style="stroke: #000000; stroke-width: 0.8"/>
      </g>
     </g>
     <g id="text_13">
      <!-- 1.0 -->
      <g transform="translate(49.096875 70.759211) scale(0.1 -0.1)">
       <use xlink:href="#DejaVuSans-31"/>
       <use xlink:href="#DejaVuSans-2e" x="63.623047"/>
       <use xlink:href="#DejaVuSans-30" x="95.410156"/>
      </g>
     </g>
    </g>
    <g id="text_14">
     <!-- fidelity -->
     <g transform="translate(43.017187 235.257656) rotate(-90) scale(0.1 -0.1)">
      <defs>
       <path id="DejaVuSans-66" d="M 2375 4863 
L 2375 4384 
L 1825 4384 
Q 1516 4384 1395 4259 
Q 1275 4134 1275 3809 
L 1275 3500 
L 2222 3500 
L 2222 3053 
L 1275 3053 
L 1275 0 
L 697 0 
L 697 3053 
L 147 3053 
L 147 3500 
L 697 3500 
L 697 3744 
Q 697 4328 969 4595 
Q 1241 4863 1831 4863 
L 2375 4863 
z
" transform="scale(0.015625)"/>
       <path id="DejaVuSans-64" d="M 2906 2969 
L 2906 4863 
L 3481 4863 
L 3481 0 
L 2906 0 
L 2906 525 
Q 2725 213 2448 61 
Q 2172 -91 1784 -91 
Q 1150 -91 751 415 
Q 353 922 353 1747 
Q 353 2572 751 3078 
Q 1150 3584 1784 3584 
Q 2172 3584 2448 3432 
Q 2725 3281 2906 2969 
z
M 947 1747 
Q 947 1113 1208 752 
Q 1469 391 1925 391 
Q 2381 391 2643 752 
Q 2906 1113 2906 1747 
Q 2906 2381 2643 2742 
Q 2381 3103 1925 3103 
Q 1469 3103 1208 2742 
Q 947 2381 947 1747 
z
" transform="scale(0.015625)"/>
       <path id="DejaVuSans-6c" d="M 603 4863 
L 1178 4863 
L 1178 0 
L 603 0 
L 603 4863 
z
" transform="scale(0.015625)"/>
       <path id="DejaVuSans-79" d="M 2059 -325 
Q 1816 -950 1584 -1140 
Q 1353 -1331 966 -1331 
L 506 -1331 
L 506 -850 
L 844 -850 
Q 1081 -850 1212 -737 
Q 1344 -625 1503 -206 
L 1606 56 
L 191 3500 
L 800 3500 
L 1894 763 
L 2988 3500 
L 3597 3500 
L 2059 -325 
z
" transform="scale(0.015625)"/>
      </defs>
      <use xlink:href="#DejaVuSans-66"/>
      <use xlink:href="#DejaVuSans-69" x="35.205078"/>
      <use xlink:href="#DejaVuSans-64" x="62.988281"/>
      <use xlink:href="#DejaVuSans-65" x="126.464844"/>
      <use xlink:href="#DejaVuSans-6c" x="187.988281"/>
      <use xlink:href="#DejaVuSans-69" x="215.771484"/>
      <use xlink:href="#DejaVuSans-74" x="243.554688"/>
      <use xlink:href="#DejaVuSans-79" x="282.763672"/>
     </g>
    </g>
   </g>
   <g id="line2d_13">
    <path d="M 92.290909 369.36 
L 191.04 369.263439 
L 199.156364 369.056333 
L 204.567273 368.732819 
L 208.625455 368.301378 
L 212.683636 367.604985 
L 215.389091 366.927153 
L 218.094545 366.016882 
L 220.8 364.808044 
L 223.505455 363.222324 
L 226.210909 361.170642 
L 227.563636 359.94018 
L 228.916364 358.557057 
L 230.269091 357.0094 
L 231.621818 355.286039 
L 232.974545 353.376956 
L 235.68 348.970455 
L 238.385455 343.753221 
L 241.090909 337.741667 
L 243.796364 331.017997 
L 246.501818 323.731138 
L 251.912727 308.278426 
L 257.323636 292.905487 
L 261.381818 281.942184 
L 265.44 271.671985 
L 268.145455 265.326335 
L 270.850909 259.425754 
L 274.909091 251.277422 
L 278.967273 243.717599 
L 283.025455 236.761788 
L 287.083636 230.387595 
L 296.552727 216.11928 
L 301.963636 208.108422 
L 306.021818 201.671605 
L 311.432727 192.599083 
L 314.138182 187.722917 
L 316.843636 182.474879 
L 319.549091 176.847888 
L 323.607273 167.787389 
L 327.665455 157.948514 
L 331.723636 147.215889 
L 337.134545 131.862754 
L 343.898182 112.599774 
L 346.603636 105.365773 
L 349.309091 98.642327 
L 352.014545 92.586758 
L 354.72 87.319541 
L 357.425455 82.893427 
L 358.778182 80.989967 
L 360.130909 79.28043 
L 362.836364 76.386861 
L 365.541818 74.090049 
L 368.247273 72.277292 
L 370.952727 70.865933 
L 373.658182 69.796691 
L 376.363636 69.01262 
L 379.069091 68.446672 
L 383.127273 67.862767 
L 387.185455 67.481147 
L 392.596364 67.210535 
L 402.065455 67.021783 
L 422.356364 66.96242 
L 498.109091 66.960033 
L 498.109091 66.960033 
" clip-path="url(#p31c95f0ff7)" style="fill: none; stroke-dasharray: 5.55,2.4; stroke-dashoffset: 0; stroke: #1f77b4; stroke-width: 1.5"/>
   </g>
   <g id="line2d_14">
    <path d="M 92.290909 369.36 
L 191.04 369.263425 
L 199.156364 369.056356 
L 204.567273 368.733007 
L 208.625455 368.301981 
L 212.683636 367.606988 
L 215.389091 366.931294 
L 218.094545 366.024926 
L 220.8 364.823884 
L 223.505455 363.252567 
L 226.210909 361.229673 
L 228.916364 358.665736 
L 231.621818 355.484103 
L 234.327273 351.629663 
L 237.032727 347.091857 
L 239.738182 342.027528 
L 243.796364 333.504516 
L 247.854545 324.983925 
L 250.56 320.031209 
L 251.912727 317.958426 
L 253.265455 316.237165 
L 254.618182 314.926048 
L 255.970909 314.079256 
L 257.323636 313.744976 
L 258.676364 313.963627 
L 260.029091 314.765578 
L 261.381818 316.168059 
L 262.734545 318.171088 
L 264.087273 320.752484 
L 265.44 323.862403 
L 266.792727 327.41832 
L 273.556364 346.628185 
L 274.909091 349.411213 
L 276.261818 351.434652 
L 277.614545 352.627153 
L 278.967273 353.008819 
L 280.32 352.6964 
L 281.672727 351.886976 
L 285.730909 348.754884 
L 287.083636 348.012643 
L 288.436364 347.492098 
L 291.141818 346.836004 
L 293.847273 346.35525 
L 303.316364 345.415253 
L 308.727273 345.194896 
L 312.785455 345.294766 
L 316.843636 345.692457 
L 320.901818 346.397984 
L 324.96 347.413018 
L 329.018182 348.757242 
L 333.076364 350.451982 
L 337.134545 352.488342 
L 341.192727 354.806244 
L 353.367273 362.072679 
L 356.072727 363.430059 
L 358.778182 364.612176 
L 361.483636 365.610368 
L 364.189091 366.409048 
L 366.894545 367.073672 
L 372.305455 367.998959 
L 377.716364 368.60584 
L 384.48 368.989227 
L 392.596364 369.223691 
L 406.123636 369.335734 
L 456.174545 369.359162 
L 498.109091 369.359683 
L 498.109091 369.359683 
" clip-path="url(#p31c95f0ff7)" style="fill: none; stroke: #ff7f0e; stroke-width: 1.5; stroke-linecap: square"/>
   </g>
   <g id="line2d_15">
    <path d="M 92.290909 369.36 
L 191.04 369.265196 
L 199.156364 369.061523 
L 204.567273 368.743192 
L 208.625455 368.318496 
L 212.683636 367.632917 
L 215.389091 366.96546 
L 218.094545 366.06891 
L 220.8 364.878106 
L 223.505455 363.316026 
L 226.210909 361.295274 
L 227.563636 360.083699 
L 228.916364 358.722234 
L 230.269091 357.199488 
L 231.621818 355.504898 
L 234.327273 351.564983 
L 237.032727 346.853935 
L 239.738182 341.371125 
L 242.443636 335.17981 
L 245.149091 328.415289 
L 250.56 313.999066 
L 254.618182 303.309181 
L 258.676364 293.351207 
L 261.381818 287.24811 
L 264.087273 281.628084 
L 266.792727 276.550127 
L 269.498182 272.064857 
L 272.203636 268.164453 
L 274.909091 264.770193 
L 277.614545 261.79229 
L 280.32 259.204609 
L 283.025455 257.034248 
L 285.730909 255.274237 
L 288.436364 253.862638 
L 291.141818 252.800264 
L 292.494545 252.413826 
L 293.847273 251.827976 
L 295.2 252.531895 
L 296.552727 251.103287 
L 299.258182 251.367225 
L 300.610909 251.045723 
L 301.963636 250.260871 
L 306.021818 247.060489 
L 307.374545 246.546943 
L 308.727273 246.472684 
L 312.785455 247.093739 
L 314.138182 246.869412 
L 315.490909 246.287034 
L 319.549091 243.713237 
L 320.901818 243.137287 
L 322.254545 242.842679 
L 323.607273 242.781393 
L 326.312727 242.886254 
L 327.665455 242.80296 
L 329.018182 242.526871 
L 330.370909 242.056148 
L 335.781818 239.691737 
L 337.134545 239.408144 
L 338.487273 239.338562 
L 339.84 239.469219 
L 342.545455 240.165305 
L 346.603636 241.631405 
L 349.309091 242.714155 
L 352.014545 244.10087 
L 353.367273 245.000642 
L 354.72 246.073481 
L 356.072727 247.327613 
L 358.778182 250.329473 
L 362.836364 255.571328 
L 368.247273 262.574104 
L 381.774545 279.325823 
L 385.832727 283.747097 
L 391.243636 289.310386 
L 395.301818 293.230748 
L 402.065455 299.254997 
L 407.476364 303.566084 
L 412.887273 307.484282 
L 418.298182 311.111456 
L 423.709091 314.43627 
L 429.12 317.512776 
L 434.530909 320.349293 
L 439.941818 322.976774 
L 446.705455 325.991378 
L 453.469091 328.73808 
L 460.232727 331.246513 
L 466.996364 333.542019 
L 475.112727 336.046582 
L 483.229091 338.309627 
L 491.345455 340.359763 
L 498.109091 341.923456 
L 498.109091 341.923456 
" clip-path="url(#p31c95f0ff7)" style="fill: none; stroke: #2ca02c; stroke-width: 1.5; stroke-linecap: square"/>
   </g>
   <g id="line2d_16">
    <path d="M 92.290909 369.36 
L 191.04 369.26383 
L 199.156364 369.057663 
L 204.567273 368.735642 
L 208.625455 368.306366 
L 212.683636 367.613828 
L 215.389091 366.939951 
L 218.094545 366.035265 
L 220.8 364.834407 
L 223.505455 363.260179 
L 226.210909 361.225013 
L 227.563636 360.005294 
L 228.916364 358.634967 
L 230.269091 357.102521 
L 231.621818 355.3972 
L 234.327273 351.431553 
L 237.032727 346.686023 
L 239.738182 341.154375 
L 242.443636 334.891873 
L 245.149091 328.022864 
L 249.207273 316.99954 
L 255.970909 298.483585 
L 260.029091 288.118948 
L 262.734545 281.666577 
L 265.44 275.642776 
L 268.145455 270.108749 
L 270.850909 265.091389 
L 273.556364 260.548163 
L 276.261818 256.39345 
L 278.967273 252.573373 
L 281.672727 249.098801 
L 284.378182 245.983543 
L 287.083636 243.17914 
L 292.494545 238.084069 
L 293.847273 236.429715 
L 295.2 236.856149 
L 296.552727 234.071132 
L 299.258182 233.129898 
L 300.610909 232.39509 
L 301.963636 231.199517 
L 303.316364 229.552971 
L 306.021818 225.690198 
L 307.374545 223.991551 
L 308.727273 222.68071 
L 310.08 221.753319 
L 312.785455 220.393439 
L 314.138182 219.524225 
L 315.490909 218.322529 
L 316.843636 216.770472 
L 322.254545 209.527673 
L 323.607273 208.081288 
L 329.018182 203.113181 
L 330.370909 201.587048 
L 333.076364 197.974339 
L 337.134545 192.203336 
L 338.487273 190.513558 
L 339.84 189.020513 
L 341.192727 187.726738 
L 343.898182 185.634127 
L 346.603636 183.956681 
L 349.309091 182.517191 
L 352.014545 181.397785 
L 353.367273 181.039346 
L 354.72 180.863253 
L 356.072727 180.895834 
L 357.425455 181.148987 
L 358.778182 181.617819 
L 360.130909 182.281415 
L 362.836364 184.052979 
L 366.894545 187.257869 
L 370.952727 190.671563 
L 373.658182 193.13955 
L 377.716364 197.258927 
L 384.48 204.33706 
L 399.36 219.10287 
L 407.476364 226.409245 
L 412.887273 230.980301 
L 419.650909 236.421292 
L 426.414545 241.529801 
L 433.178182 246.349714 
L 439.941818 250.897383 
L 446.705455 255.18922 
L 453.469091 259.244822 
L 461.585455 263.823359 
L 469.701818 268.111334 
L 477.818182 272.132094 
L 485.934545 275.906757 
L 494.050909 279.454442 
L 498.109091 281.148653 
L 498.109091 281.148653 
" clip-path="url(#p31c95f0ff7)" style="fill: none; stroke: #d62728; stroke-width: 1.5; stroke-linecap: square"/>
   </g>
   <g id="line2d_17">
    <path d="M 92.290909 369.36 
L 191.04 369.263499 
L 199.156364 369.056573 
L 204.567273 368.733334 
L 208.625455 368.302311 
L 212.683636 367.606735 
L 215.389091 366.929748 
L 218.094545 366.020661 
L 220.8 364.813534 
L 223.505455 363.230353 
L 226.210909 361.182445 
L 227.563636 359.954489 
L 228.916364 358.574386 
L 230.269091 357.030356 
L 231.621818 355.311336 
L 232.974545 353.407439 
L 235.68 349.01449 
L 238.385455 343.816365 
L 241.090909 337.831397 
L 243.796364 331.144102 
L 246.501818 323.906084 
L 251.912727 308.599327 
L 257.323636 293.45569 
L 261.381818 282.731799 
L 265.44 272.758858 
L 268.145455 266.638512 
L 270.850909 260.983643 
L 273.556364 255.744395 
L 277.614545 248.459886 
L 280.32 243.935811 
L 283.025455 239.717507 
L 287.083636 233.895427 
L 293.847273 224.679813 
L 306.021818 208.562517 
L 311.432727 200.754464 
L 314.138182 196.589316 
L 316.843636 192.122198 
L 320.901818 184.848389 
L 324.96 176.988492 
L 329.018182 168.502452 
L 333.076364 159.371312 
L 342.545455 137.452145 
L 345.250909 131.675847 
L 347.956364 126.378767 
L 350.661818 121.699756 
L 353.367273 117.754516 
L 354.72 116.080237 
L 356.072727 114.608935 
L 357.425455 113.337916 
L 358.778182 112.260097 
L 360.130909 111.364651 
L 361.483636 110.63798 
L 362.836364 110.064909 
L 364.189091 109.629908 
L 366.894545 109.116564 
L 369.6 109.00046 
L 372.305455 109.21251 
L 375.010909 109.698147 
L 377.716364 110.399893 
L 381.774545 111.721067 
L 387.185455 113.753345 
L 393.949091 116.551717 
L 419.650909 127.357257 
L 433.178182 132.702636 
L 446.705455 137.789331 
L 460.232727 142.630268 
L 473.76 147.240913 
L 488.64 152.063416 
L 498.109091 155.004077 
L 498.109091 155.004077 
" clip-path="url(#p31c95f0ff7)" style="fill: none; stroke: #9467bd; stroke-width: 1.5; stroke-linecap: square"/>
   </g>
   <g id="line2d_18">
    <path d="M 92.290909 369.36 
L 191.04 369.263436 
L 199.156364 369.056361 
L 204.567273 368.732864 
L 208.625455 368.301477 
L 212.683636 367.605257 
L 215.389091 366.927587 
L 218.094545 366.017509 
L 220.8 364.808952 
L 223.505455 363.223699 
L 226.210909 361.172783 
L 227.563636 359.942845 
L 228.916364 358.560355 
L 230.269091 357.013456 
L 231.621818 355.290992 
L 232.974545 353.382972 
L 235.68 348.979237 
L 238.385455 343.765933 
L 241.090909 337.759935 
L 243.796364 331.044017 
L 246.501818 323.767797 
L 251.912727 308.346925 
L 257.323636 293.023022 
L 261.381818 282.112007 
L 265.44 271.908134 
L 268.145455 265.611804 
L 270.850909 259.76371 
L 274.909091 251.705889 
L 278.967273 244.252748 
L 281.672727 239.613716 
L 285.730909 233.192678 
L 293.847273 221.116435 
L 304.669091 205.312268 
L 310.08 196.647917 
L 314.138182 189.672799 
L 316.843636 184.605442 
L 319.549091 179.171282 
L 323.607273 170.414496 
L 327.665455 160.922889 
L 331.723636 150.602517 
L 337.134545 135.873014 
L 342.545455 121.056952 
L 346.603636 110.634003 
L 349.309091 104.306669 
L 352.014545 98.651082 
L 354.72 93.779619 
L 356.072727 91.65603 
L 357.425455 89.740547 
L 358.778182 88.027127 
L 360.130909 86.505571 
L 361.483636 85.162536 
L 362.836364 83.982796 
L 365.541818 82.05073 
L 368.247273 80.595939 
L 370.952727 79.533899 
L 373.658182 78.804344 
L 376.363636 78.351537 
L 379.069091 78.111158 
L 383.127273 78.009079 
L 388.538182 78.165868 
L 395.301818 78.677271 
L 407.476364 79.87297 
L 457.527273 84.992397 
L 491.345455 88.177555 
L 498.109091 88.788226 
L 498.109091 88.788226 
" clip-path="url(#p31c95f0ff7)" style="fill: none; stroke: #8c564b; stroke-width: 1.5; stroke-linecap: square"/>
   </g>
   <g id="line2d_19">
    <path d="M 92.290909 369.36 
L 191.04 369.263422 
L 199.156364 369.056312 
L 204.567273 368.732756 
L 208.625455 368.301284 
L 212.683636 367.604912 
L 215.389091 366.92708 
L 218.094545 366.016768 
L 220.8 364.807869 
L 223.505455 363.222117 
L 226.210909 361.170466 
L 227.563636 359.940042 
L 228.916364 358.556964 
L 230.269091 357.009356 
L 231.621818 355.286038 
L 232.974545 353.376992 
L 235.68 348.970558 
L 238.385455 343.753425 
L 241.090909 337.742083 
L 243.796364 331.018845 
L 246.501818 323.732801 
L 251.912727 308.282442 
L 257.323636 292.911902 
L 261.381818 281.95252 
L 265.44 271.688951 
L 268.145455 265.347076 
L 270.850909 259.448937 
L 274.909091 251.307036 
L 278.967273 243.758963 
L 283.025455 236.809405 
L 287.083636 230.440686 
L 296.552727 216.20013 
L 301.963636 208.205619 
L 306.021818 201.791779 
L 311.432727 192.727611 
L 314.138182 187.864665 
L 316.843636 182.638312 
L 319.549091 177.030486 
L 323.607273 167.984592 
L 327.665455 158.166271 
L 331.723636 147.474425 
L 335.781818 136.064029 
L 343.898182 112.967278 
L 346.603636 105.764182 
L 349.309091 99.07563 
L 352.014545 93.054645 
L 354.72 87.818433 
L 357.425455 83.419394 
L 358.778182 81.528688 
L 360.130909 79.83191 
L 362.836364 76.965086 
L 365.541818 74.697198 
L 368.247273 72.914135 
L 370.952727 71.530914 
L 373.658182 70.487104 
L 376.363636 69.726703 
L 379.069091 69.184639 
L 383.127273 68.638635 
L 387.185455 68.294238 
L 392.596364 68.069705 
L 402.065455 67.962896 
L 422.356364 68.072466 
L 498.109091 68.660998 
L 498.109091 68.660998 
" clip-path="url(#p31c95f0ff7)" style="fill: none; stroke: #e377c2; stroke-width: 1.5; stroke-linecap: square"/>
   </g>
   <g id="patch_3">
    <path d="M 72 384.48 
L 72 51.84 
" style="fill: none; stroke: #000000; stroke-width: 0.8; stroke-linejoin: miter; stroke-linecap: square"/>
   </g>
   <g id="patch_4">
    <path d="M 518.4 384.48 
L 518.4 51.84 
" style="fill: none; stroke: #000000; stroke-width: 0.8; stroke-linejoin: miter; stroke-linecap: square"/>
   </g>
   <g id="patch_5">
    <path d="M 72 384.48 
L 518.4 384.48 
" style="fill: none; stroke: #000000; stroke-width: 0.8; stroke-linejoin: miter; stroke-linecap: square"/>
   </g>
   <g id="patch_6">
    <path d="M 72 51.84 
L 518.4 51.84 
" style="fill: none; stroke: #000000; stroke-width: 0.8; stroke-linejoin: miter; stroke-linecap: square"/>
   </g>
   <g id="legend_1">
    <g id="patch_7">
     <path d="M 79 162.586875 
L 149.3 162.586875 
Q 151.3 162.586875 151.3 160.586875 
L 151.3 58.84 
Q 151.3 56.84 149.3 56.84 
L 79 56.84 
Q 77 56.84 77 58.84 
L 77 160.586875 
Q 77 162.586875 79 162.586875 
z
" style="fill: #ffffff; opacity: 0.8; stroke: #cccccc; stroke-linejoin: miter"/>
    </g>
    <g id="line2d_20">
     <path d="M 81 64.938437 
L 91 64.938437 
L 101 64.938437 
" style="fill: none; stroke-dasharray: 5.55,2.4; stroke-dashoffset: 0; stroke: #1f77b4; stroke-width: 1.5"/>
    </g>
    <g id="text_15">
     <!-- ideal -->
     <g transform="translate(109 68.438437) scale(0.1 -0.1)">
      <defs>
       <path id="DejaVuSans-61" d="M 2194 1759 
Q 1497 1759 1228 1600 
Q 959 1441 959 1056 
Q 959 750 1161 570 
Q 1363 391 1709 391 
Q 2188 391 2477 730 
Q 2766 1069 2766 1631 
L 2766 1759 
L 2194 1759 
z
M 3341 1997 
L 3341 0 
L 2766 0 
L 2766 531 
Q 2569 213 2275 61 
Q 1981 -91 1556 -91 
Q 1019 -91 701 211 
Q 384 513 384 1019 
Q 384 1609 779 1909 
Q 1175 2209 1959 2209 
L 2766 2209 
L 2766 2266 
Q 2766 2663 2505 2880 
Q 2244 3097 1772 3097 
Q 1472 3097 1187 3025 
Q 903 2953 641 2809 
L 641 3341 
Q 956 3463 1253 3523 
Q 1550 3584 1831 3584 
Q 2591 3584 2966 3190 
Q 3341 2797 3341 1997 
z
" transform="scale(0.015625)"/>
      </defs>
      <use xlink:href="#DejaVuSans-69"/>
      <use xlink:href="#DejaVuSans-64" x="27.783203"/>
      <use xlink:href="#DejaVuSans-65" x="91.259766"/>
      <use xlink:href="#DejaVuSans-61" x="152.783203"/>
      <use xlink:href="#DejaVuSans-6c" x="214.0625"/>
     </g>
    </g>
    <g id="line2d_21">
     <path d="M 81 79.616562 
L 91 79.616562 
L 101 79.616562 
" style="fill: none; stroke: #ff7f0e; stroke-width: 1.5; stroke-linecap: square"/>
    </g>
    <g id="text_16">
     <!-- $E_{P}$=0 -->
     <g transform="translate(109 83.116562) scale(0.1 -0.1)">
      <defs>
       <path id="DejaVuSans-Oblique-45" d="M 1081 4666 
L 4031 4666 
L 3928 4134 
L 1606 4134 
L 1338 2753 
L 3566 2753 
L 3463 2222 
L 1234 2222 
L 909 531 
L 3284 531 
L 3181 0 
L 172 0 
L 1081 4666 
z
" transform="scale(0.015625)"/>
       <path id="DejaVuSans-Oblique-50" d="M 1081 4666 
L 2541 4666 
Q 3178 4666 3512 4369 
Q 3847 4072 3847 3500 
Q 3847 2731 3353 2303 
Q 2859 1875 1966 1875 
L 1172 1875 
L 806 0 
L 172 0 
L 1081 4666 
z
M 1613 4147 
L 1275 2394 
L 2069 2394 
Q 2606 2394 2893 2669 
Q 3181 2944 3181 3456 
Q 3181 3784 2986 3965 
Q 2791 4147 2438 4147 
L 1613 4147 
z
" transform="scale(0.015625)"/>
       <path id="DejaVuSans-3d" d="M 678 2906 
L 4684 2906 
L 4684 2381 
L 678 2381 
L 678 2906 
z
M 678 1631 
L 4684 1631 
L 4684 1100 
L 678 1100 
L 678 1631 
z
" transform="scale(0.015625)"/>
      </defs>
      <use xlink:href="#DejaVuSans-Oblique-45" transform="translate(0 0.78125)"/>
      <use xlink:href="#DejaVuSans-Oblique-50" transform="translate(63.183594 -15.625) scale(0.7)"/>
      <use xlink:href="#DejaVuSans-3d" transform="translate(108.129883 0.78125)"/>
      <use xlink:href="#DejaVuSans-30" transform="translate(191.918945 0.78125)"/>
     </g>
    </g>
    <g id="line2d_22">
     <path d="M 81 94.294687 
L 91 94.294687 
L 101 94.294687 
" style="fill: none; stroke: #2ca02c; stroke-width: 1.5; stroke-linecap: square"/>
    </g>
    <g id="text_17">
     <!-- $E_{P}$=5 -->
     <g transform="translate(109 97.794687) scale(0.1 -0.1)">
      <defs>
       <path id="DejaVuSans-35" d="M 691 4666 
L 3169 4666 
L 3169 4134 
L 1269 4134 
L 1269 2991 
Q 1406 3038 1543 3061 
Q 1681 3084 1819 3084 
Q 2600 3084 3056 2656 
Q 3513 2228 3513 1497 
Q 3513 744 3044 326 
Q 2575 -91 1722 -91 
Q 1428 -91 1123 -41 
Q 819 9 494 109 
L 494 744 
Q 775 591 1075 516 
Q 1375 441 1709 441 
Q 2250 441 2565 725 
Q 2881 1009 2881 1497 
Q 2881 1984 2565 2268 
Q 2250 2553 1709 2553 
Q 1456 2553 1204 2497 
Q 953 2441 691 2322 
L 691 4666 
z
" transform="scale(0.015625)"/>
      </defs>
      <use xlink:href="#DejaVuSans-Oblique-45" transform="translate(0 0.09375)"/>
      <use xlink:href="#DejaVuSans-Oblique-50" transform="translate(63.183594 -16.3125) scale(0.7)"/>
      <use xlink:href="#DejaVuSans-3d" transform="translate(108.129883 0.09375)"/>
      <use xlink:href="#DejaVuSans-35" transform="translate(191.918945 0.09375)"/>
     </g>
    </g>
    <g id="line2d_23">
     <path d="M 81 108.972812 
L 91 108.972812 
L 101 108.972812 
" style="fill: none; stroke: #d62728; stroke-width: 1.5; stroke-linecap: square"/>
    </g>
    <g id="text_18">
     <!-- $E_{P}$=10 -->
     <g transform="translate(109 112.472812) scale(0.1 -0.1)">
      <use xlink:href="#DejaVuSans-Oblique-45" transform="translate(0 0.78125)"/>
      <use xlink:href="#DejaVuSans-Oblique-50" transform="translate(63.183594 -15.625) scale(0.7)"/>
      <use xlink:href="#DejaVuSans-3d" transform="translate(108.129883 0.78125)"/>
      <use xlink:href="#DejaVuSans-31" transform="translate(191.918945 0.78125)"/>
      <use xlink:href="#DejaVuSans-30" transform="translate(255.541992 0.78125)"/>
     </g>
    </g>
    <g id="line2d_24">
     <path d="M 81 123.650937 
L 91 123.650937 
L 101 123.650937 
" style="fill: none; stroke: #9467bd; stroke-width: 1.5; stroke-linecap: square"/>
    </g>
    <g id="text_19">
     <!-- $E_{P}$=25 -->
     <g transform="translate(109 127.150937) scale(0.1 -0.1)">
      <use xlink:href="#DejaVuSans-Oblique-45" transform="translate(0 0.78125)"/>
      <use xlink:href="#DejaVuSans-Oblique-50" transform="translate(63.183594 -15.625) scale(0.7)"/>
      <use xlink:href="#DejaVuSans-3d" transform="translate(108.129883 0.78125)"/>
      <use xlink:href="#DejaVuSans-32" transform="translate(191.918945 0.78125)"/>
      <use xlink:href="#DejaVuSans-35" transform="translate(255.541992 0.78125)"/>
     </g>
    </g>
    <g id="line2d_25">
     <path d="M 81 138.329062 
L 91 138.329062 
L 101 138.329062 
" style="fill: none; stroke: #8c564b; stroke-width: 1.5; stroke-linecap: square"/>
    </g>
    <g id="text_20">
     <!-- $E_{P}$=50 -->
     <g transform="translate(109 141.829062) scale(0.1 -0.1)">
      <use xlink:href="#DejaVuSans-Oblique-45" transform="translate(0 0.78125)"/>
      <use xlink:href="#DejaVuSans-Oblique-50" transform="translate(63.183594 -15.625) scale(0.7)"/>
      <use xlink:href="#DejaVuSans-3d" transform="translate(108.129883 0.78125)"/>
      <use xlink:href="#DejaVuSans-35" transform="translate(191.918945 0.78125)"/>
      <use xlink:href="#DejaVuSans-30" transform="translate(255.541992 0.78125)"/>
     </g>
    </g>
    <g id="line2d_26">
     <path d="M 81 153.007187 
L 91 153.007187 
L 101 153.007187 
" style="fill: none; stroke: #e377c2; stroke-width: 1.5; stroke-linecap: square"/>
    </g>
    <g id="text_21">
     <!-- $E_{P}$=100 -->
     <g transform="translate(109 156.507187) scale(0.1 -0.1)">
      <use xlink:href="#DejaVuSans-Oblique-45" transform="translate(0 0.78125)"/>
      <use xlink:href="#DejaVuSans-Oblique-50" transform="translate(63.183594 -15.625) scale(0.7)"/>
      <use xlink:href="#DejaVuSans-3d" transform="translate(108.129883 0.78125)"/>
      <use xlink:href="#DejaVuSans-31" transform="translate(191.918945 0.78125)"/>
      <use xlink:href="#DejaVuSans-30" transform="translate(255.541992 0.78125)"/>
      <use xlink:href="#DejaVuSans-30" transform="translate(319.165039 0.78125)"/>
     </g>
    </g>
   </g>
  </g>
 </g>
 <defs>
  <clipPath id="p31c95f0ff7">
   <rect x="72" y="51.84" width="446.4" height="332.64"/>
  </clipPath>
 </defs>
</svg>
